<svg xmlns="http://www.w3.org/2000/svg" viewBox="0 0 750 500"><g id="freepik--character-4--inject-32"><path d="M527.24,123.44s.19,5.32,1.65,7.33,2.75,4,2.75,4l.37,3.85,8.25-1.65V126.92l-2.2-7.7Z" style="fill:#fff;stroke:#263238;stroke-miterlimit:10"></path><path d="M529.44,137.56s2.39,40.52,4,47.49,18.33,46,18.33,46l23.47-23.47-20.17-28.24-13.93-43.63Z" style="fill:#969696;stroke:#263238;stroke-miterlimit:10"></path><path d="M539.36,120.22s-1.2-7.57-2.59-7.17-11.35,5.57-11.15,6.57,0,5.18,2,5.18S540,121.61,540,121.61Z" style="fill:#fff;stroke:#263238;stroke-miterlimit:10"></path><line x1="533.98" y1="114.64" x2="537.36" y2="123" style="fill:#fff;stroke:#263238;stroke-miterlimit:10"></line><line x1="530.99" y1="116.03" x2="533.58" y2="123.8" style="fill:#fff;stroke:#263238;stroke-miterlimit:10"></line><line x1="528.2" y1="117.83" x2="530" y2="124" style="fill:#fff;stroke:#263238;stroke-miterlimit:10"></line><path d="M539.56,135.15s2-9.16,1.79-11.75-2.39-4.38-5-6-3,.4-1.59,2.19,2.58,3.38,2.58,3.38-4.77,3.59-4,7.37,2,4.18,2,4.18" style="fill:#fff;stroke:#263238;stroke-miterlimit:10"></path><path d="M559.33,167.81s-2.75,4.59-2.57,6.24a18.74,18.74,0,0,1-.18,4s-6.78,3.12-6.6,4.59,2.38,4.76,2.38,4.76-.73,10.09.19,11.92,5.68,3.3,5.68,3.3a38.17,38.17,0,0,0,4.4,4.95c1.47,1.1,1.28,7.52,1.28,7.52l12.29-3.48s3.48-6.6,3.67-19.26,0-22.55-4.59-26S561.16,165.25,559.33,167.81Z" style="fill:#fff;stroke:#263238;stroke-miterlimit:10"></path><path d="M562.16,178.61c0,1.12-.51,2-1.14,2s-1.14-.92-1.14-2,.51-2,1.14-2S562.16,177.48,562.16,178.61Z" style="fill:#263238"></path><path d="M559.51,175.15s1.29-1.84,3.3.18" style="fill:none;stroke:#263238;stroke-miterlimit:10"></path><line x1="554.75" y1="189.63" x2="558.6" y2="190.73" style="fill:none;stroke:#263238;stroke-miterlimit:10"></line><path d="M592.23,456.69l-7.7,7.33s-9.72,4-9.9,4.59-.73,2.2.37,2.57a74,74,0,0,0,12.47,1.1c2.93-.19,7.15-.19,8.61-.19s9.17.55,10.82-.36,2.2-1.65,1.65-5.14l-1.65-10.45Z" style="fill:#fff;stroke:#263238;stroke-miterlimit:10"></path><path d="M569.09,366.39s2.57,15.77,4.59,19.8,17.64,65.37,17.64,65.37l-.92,4.4v1.28s-.18,1.28,4.22,1.28,11.55-.18,12.46-.73-.48-3.66-1.4-13.56.45-46.85-2.3-57.3-4.77-14.12-4.77-14.12l-1.83-34.47Z" style="fill:#263238;stroke:#263238;stroke-miterlimit:10"></path><path d="M546,453.54s-4.77,5.32-6,6.24-10.45,5-12.47,6.05-1.1,3.85.37,4.4,26.95,2,29.89,2,5.68.36,5.68-3.49-.37-13-.37-13Z" style="fill:#fff;stroke:#263238;stroke-miterlimit:10"></path><path d="M548.7,308.82s-.19,13.75,2,24,3.12,15.77,3.12,15.77S541,378.55,540.77,383.5s4.86,65.64,4.86,65.64-1.84.37-1.84,1.65.37,4.95.37,4.95,2.57,2,9.9,2.39,9-2.39,9-2.39l-.36-20.35,6.51-49.87s34.33-44.8,37.26-51.77S610.3,316,608.65,311a55.37,55.37,0,0,0-3.11-7.7Z" style="fill:#263238;stroke:#263238;stroke-miterlimit:10"></path><path d="M548.7,303.32l-.55,9.53s12.28,6.24,31,5.13,29.34-6.41,29.52-7-3.11-15.59-3.11-15.59-14.49,6.42-27.69,8.62S548.7,303.32,548.7,303.32Z" style="fill:#9C27B0;stroke:#263238;stroke-miterlimit:10"></path><path d="M556.76,221.9s-7.33,20.91-7.7,24.39S543.75,302,546,304.23s21.45,8.44,40,4.95,21.82-9,19.8-18.52-11.18-60.32-15-68.76-16.51-6.05-16.51-6.05Z" style="fill:#969696;stroke:#263238;stroke-miterlimit:10"></path><path d="M553.65,222.45s-12.11,27-12.29,30.08S539,299.28,539,299.28l16.5,1.65-1.65-49.69,7-28.79Z" style="fill:#9C27B0;stroke:#263238;stroke-miterlimit:10"></path><path d="M573.63,203.39s-24.75,8.8-24.57,10.63S550.9,224.1,552,225.2s28.78-5.5,30.07-9S575.65,202.65,573.63,203.39Z" style="fill:#9C27B0;stroke:#263238;stroke-miterlimit:10"></path><path d="M565.38,155.53a10.56,10.56,0,0,0-6.78,5.32,45.45,45.45,0,0,0-3.67,8.25l10.82,2,2.2-3.48.37,4.22,2.38,1.46s-1.47,3.12.37,7.89a64.22,64.22,0,0,1,2.75,9.53,54.48,54.48,0,0,0-7.34,24.21c-.73,13.93,6.42,18.88,12.47,16.13s8.07-7.88,13.94-7.15,8.8,7.89,11.18,9.9,11.37-.36,10.27-13.93S605.72,208,605,195.32s-.92-26.22-6.24-33.92-17.42-8.62-22.18-8.07A102.73,102.73,0,0,0,565.38,155.53Z" style="fill:#263238;stroke:#263238;stroke-miterlimit:10"></path><path d="M608.65,320.37s-1.83,5.87-2.2,7.52-1.46,7-1.28,7.51.37,3.49,1.28,3.67a2.53,2.53,0,0,1,1.47,1.1s1.28,2.57,3.3,2.39,4-2.39,4-2.39,7.7-1.83,7.51-4.58-3.48-15.4-3.48-15.4Z" style="fill:#fff;stroke:#263238;stroke-miterlimit:10"></path><path d="M575.65,239.32,597.47,283,607,322.75l14.12-1.65s-1.46-42.72-2.93-47.85S605,232.72,601.5,229.79s-10.45-9.54-18-2.93-7.51,9.9-7.51,9.9" style="fill:#969696;stroke:#263238;stroke-miterlimit:10"></path></g><g id="freepik--character-3--inject-32"><path d="M379,303.7s.92,5.35,2.28,6.32,2.83,1,2.44-.39-1.22-2-1.27-3.31l0-1.35s1.31,2.61,2.48,2.91,2.63.39,2.54-.49-1.27-1.27-1.76-1.95l-1.46-2.05a12.91,12.91,0,0,0,2.92,1.46c.78.1,1.56-.29,1.37-1.36s-2.05-1.17-2.63-1.76a5.49,5.49,0,0,1-1-1.46s2.05-1.46,2.24-3.12-1.95-3.22-1.95-3.22a9.46,9.46,0,0,0-4.48,3.12,19.54,19.54,0,0,0-2.64,5.07Z" style="fill:#fff;stroke:#263238;stroke-miterlimit:10"></path><path d="M389.52,285.48s-4.78,4.38-7,6.17-6.49,8.27-6.89,11.06-.13,7,1.37,8.29c.68.58,1.85-.78,1.75-1.86-.23-2.6-.39-3.87,0-5.07,0-.1.09-.22.16-.37.76-1.62,5-6.48,5-6.48s-1.39,6.36-1.59,7.75.59,4.58,1.79,3.19,2-5,2.38-6.57,3.39-2.19,5.18-4.57,2.38-5.57,2.78-6.37S389.52,285.48,389.52,285.48Z" style="fill:#fff;stroke:#263238;stroke-miterlimit:10"></path><path d="M489.21,435.53,496.49,452s-3.48,7.13-6.17,10.29-9.65,6.17-10,7.75,18.36,2.22,20.42,1.27,4-4.27,6.48-6.65,10.76-3.79,9.18-9.49-8.07-9-8.07-9l-3.48-16.62Z" style="fill:#fff;stroke:#263238;stroke-miterlimit:10"></path><path d="M516.43,455.15c-1-3.51-3.8-6.11-5.83-7.59-.71,1-1.66,2.35-2.87,3.95a11.58,11.58,0,0,1-7.28,4.43l-.95-1.11c-.69-.8-2.72-1.19-3.77-1.34a55.6,55.6,0,0,1-5.41,8.78c-2.69,3.17-9.65,6.17-10,7.75s18.36,2.22,20.42,1.27,4-4.27,6.48-6.65S518,460.85,516.43,455.15Z" style="fill:#263238;stroke:#263238;stroke-miterlimit:10"></path><path d="M445.07,353.75s4.06,21.31,6.34,26.89S485.57,441,485.57,441l22.58-8.62L481.35,356l-6.6-47.7Z" style="fill:#9C27B0;stroke:#263238;stroke-miterlimit:10"></path><path d="M472.58,316.65s-17.77,52-18.1,55.33-.34,12.41-.34,12.41l-2.73-3.75-6-20.39,7.38-20.79Z" style="fill:#263238;stroke:#263238;stroke-miterlimit:10"></path><path d="M406.59,435.49l-6,19.15s-14.72,1.58-17.56,1.27-7.92-2.69-8.71-.16,9.5,9.18,18.36,12c3.54,1.13,7,2.45,10.53,3.65,3.88,1.32,7.53,1.5,9.09-2.86s.63-7.6,1.27-8.87S424,437.55,424,437.55Z" style="fill:#fff;stroke:#263238;stroke-miterlimit:10"></path><path d="M397.73,458l.91-3.12c-4.1.42-13.42,1.31-15.62,1.07-2.85-.32-7.92-2.69-8.71-.16s9.5,9.18,18.36,12c3.54,1.13,7,2.45,10.53,3.65,3.88,1.32,7.53,1.5,9.09-2.86a16.92,16.92,0,0,0,.94-4.5Z" style="fill:#263238;stroke:#263238;stroke-miterlimit:10"></path><path d="M424.52,283l1.52,15s-12.94,43.64-14,52S403,437.47,403,437.47l24.36,4.31,21.56-83s26.39-43.13,27.91-49.47.25-21.82-1.27-24.87l-1.52-3Z" style="fill:#9C27B0;stroke:#263238;stroke-miterlimit:10"></path><path d="M435.37,210.8s-20.26,11.52-20.46,12.31-7,38.54-7,38.54L387.9,284.29l7.54,9.93,24-16.48,1,8.74,58.6-2.59.19-12.31s-5.16-64.95-6.55-65.95-14.7-1.19-14.7-1.19Z" style="fill:#fff;stroke:#263238;stroke-miterlimit:10"></path><path d="M459.8,222.32l4.77,29.2-23.44-6.76-2.58,14.9s34,12.71,38.33,13.9,8.14,1,9.73-1.19,2.19-5.36,2.39-8.74-11.72-57.8-14.5-58.79-13.51-.2-13.51-.2" style="fill:#fff;stroke:#263238;stroke-miterlimit:10"></path><line x1="464.57" y1="251.52" x2="478.87" y2="254.89" style="fill:#fff;stroke:#263238;stroke-miterlimit:10"></line><path d="M406,237.22s2.58,24.43,1.39,43.89-2,33.37-2,33.37a122.28,122.28,0,0,0,29.8,6c15.89,1,22.84,1.39,22.84,1.39l-.2-81s-28.2-.4-36.35-1.59S406,237.22,406,237.22Z" style="fill:#fff;stroke:#263238;stroke-miterlimit:10"></path><path d="M421.59,265.53l-3.1-19.4,2.21.23,2.05,13.92,2.57-13.38,1.88.19,2.59,14,2-13.58,2.17.22-3.06,18.77-1.93-.2-2.66-14.4-2.69,13.86Z" style="fill:#263238"></path><path d="M436.29,267V248l7.4.76v2L439,250.2v6.32l3.84.39v1.88L439,258.4v7l4.78.49v1.9Z" style="fill:#263238"></path><path d="M419.2,285.91a5.58,5.58,0,0,1-3.14-1.17,5,5,0,0,1-1.56-2.44,11.51,11.51,0,0,1-.43-3.25v-6.74a11.24,11.24,0,0,1,.43-3.32,3.53,3.53,0,0,1,1.56-2.07,5.11,5.11,0,0,1,3.14-.47,5.81,5.81,0,0,1,2.84.95,4.36,4.36,0,0,1,1.51,2,8.74,8.74,0,0,1,.46,3v1.51l-2.52-.26v-1.34a15,15,0,0,0-.11-1.88,2.29,2.29,0,0,0-.57-1.32,2.52,2.52,0,0,0-1.58-.61,2.21,2.21,0,0,0-1.65.31,2.06,2.06,0,0,0-.67,1.3,11.15,11.15,0,0,0-.16,2.05v7.56a8.89,8.89,0,0,0,.24,2.3,2.35,2.35,0,0,0,.78,1.27,2.84,2.84,0,0,0,1.46.5,2,2,0,0,0,1.55-.33,2,2,0,0,0,.59-1.27,13.9,13.9,0,0,0,.12-2v-1.42l2.52.26v1.41a9.83,9.83,0,0,1-.42,3,3.46,3.46,0,0,1-1.47,1.92A4.67,4.67,0,0,1,419.2,285.91Z" style="fill:#263238"></path><path d="M425.52,286.35l4.05-18.67,2.57.26,4.07,19.5-2.52-.26-.87-4.89-3.89-.4L428,286.6Zm3.77-6.33,3.18.32-1.61-8.76Z" style="fill:#263238"></path><path d="M438.14,287.64V268.56l1.82.18L445.37,282V269.3l2.22.22V288.6l-1.7-.17-5.49-13.59v13Z" style="fill:#263238"></path><path d="M409.46,305.12V286l4.15.42a8.05,8.05,0,0,1,3.36,1,4.32,4.32,0,0,1,1.76,2.13,8.84,8.84,0,0,1,.53,3.28v7a9,9,0,0,1-.53,3.36,3.46,3.46,0,0,1-1.72,1.93,5.84,5.84,0,0,1-3.19.4Zm2.67-1.64,1.5.16a2.82,2.82,0,0,0,2.08-.36,2.34,2.34,0,0,0,.74-1.57,23.52,23.52,0,0,0,.13-2.6v-6.2a13.24,13.24,0,0,0-.19-2.42,2.27,2.27,0,0,0-.83-1.42,3.89,3.89,0,0,0-2-.63l-1.43-.15Z" style="fill:#263238"></path><path d="M426.75,307.1a6.06,6.06,0,0,1-3.08-1.07,4.78,4.78,0,0,1-1.65-2.32,10.34,10.34,0,0,1-.5-3.34v-7.23A8.78,8.78,0,0,1,422,290a3.49,3.49,0,0,1,1.65-1.9,5.43,5.43,0,0,1,3.07-.41,6,6,0,0,1,3.07,1.05,4.69,4.69,0,0,1,1.63,2.24,9.54,9.54,0,0,1,.51,3.28v7.25a9,9,0,0,1-.51,3.2,3.73,3.73,0,0,1-1.63,2A5.15,5.15,0,0,1,426.75,307.1Zm0-2.1a2.31,2.31,0,0,0,1.61-.27,1.91,1.91,0,0,0,.73-1.15,8.09,8.09,0,0,0,.18-1.83v-8.36a8.4,8.4,0,0,0-.18-1.85,2.35,2.35,0,0,0-.73-1.25,2.9,2.9,0,0,0-1.61-.57,2.51,2.51,0,0,0-1.61.24,1.75,1.75,0,0,0-.74,1.1,7.28,7.28,0,0,0-.19,1.81v8.36a8,8,0,0,0,.19,1.87,2.38,2.38,0,0,0,.74,1.3A2.79,2.79,0,0,0,426.75,305Z" style="fill:#263238"></path><path d="M440.11,308.25V289.17l2.61.27v19.08Z" style="fill:#263238"></path><path d="M447.91,309.05V292l-3.23-.33v-2l9,.92v2l-3.13-.32v17.1Z" style="fill:#263238"></path><path d="M429.41,236.62s-1.19-2.18-2.38-1.79-3.58,5.76-3.38,6.56.2,1.39,1.59.79S429.41,236.62,429.41,236.62Z" style="fill:#fff;stroke:#263238;stroke-miterlimit:10"></path><path d="M432.28,237.15s-1.19-2.18-2.38-1.79-3.58,5.76-3.38,6.56.2,1.39,1.59.79S432.28,237.15,432.28,237.15Z" style="fill:#fff;stroke:#263238;stroke-miterlimit:10"></path><path d="M435.48,238s-1.2-2.18-2.39-1.78-3.57,5.76-3.37,6.55.19,1.39,1.59.8S435.48,238,435.48,238Z" style="fill:#fff;stroke:#263238;stroke-miterlimit:10"></path><path d="M438.44,240.28l-.7-1.75s-.94-1.72-1.88-1.41-2.82,4.54-2.66,5.17.16,1.09,1.25.62a8.4,8.4,0,0,0,2.23-2.63Z" style="fill:#fff;stroke:#263238;stroke-miterlimit:10"></path><polygon points="433.78 206.23 425.24 211.2 431.99 218.15 437.95 215.96 433.78 206.23" style="fill:#fff;stroke:#263238;stroke-miterlimit:10"></polygon><path d="M421.66,166.51s-2.18,7-1.79,8.54.8,3.37.4,4.56-5.76,6-5.16,7.15a29.81,29.81,0,0,0,2.78,3.78s.59,10.72,2.18,10.72,9.74.4,9.74.4l5,12.91,20.86-10.52-.8-12.12L456,179.42Z" style="fill:#fff;stroke:#263238;stroke-miterlimit:10"></path><path d="M425.32,191.81a2.19,2.19,0,1,1-2.18-1.91A2.06,2.06,0,0,1,425.32,191.81Z" style="fill:#263238"></path><path d="M425.44,181c0,.88-.4,1.59-.9,1.59s-.89-.71-.89-1.59.4-1.58.89-1.58S425.44,180.13,425.44,181Z" style="fill:#263238"></path><path d="M423.25,176.64s2.78-1.79,6.16,1" style="fill:none;stroke:#263238;stroke-miterlimit:10"></path><polygon points="455.83 199.48 430.8 210.8 434.97 218.74 458.01 204.44 455.83 199.48" style="fill:#fff;stroke:#263238;stroke-miterlimit:10"></polygon><path d="M436.16,170.68s-2.78,24.23-4.57,27.61a44.11,44.11,0,0,0-2.78,6.55s14.9,2.78,24.43,2.18,13.51-4.17,13.51-4.17-3-11.32-4.57-15.89S459.4,179,459.4,179Z" style="fill:#263238;stroke:#263238;stroke-miterlimit:10"></path><path d="M420.27,169.29s39.13,14.1,40.32,13.9,5.17-1.59,6.36-7.75-.8-15.29-11.12-21.65-35.56-4.57-37.94,3.38S420.27,169.29,420.27,169.29Z" style="fill:#969696;stroke:#263238;stroke-miterlimit:10"></path></g><g id="freepik--character-2--inject-32"><path d="M302.88,295.64l-1.39,16.29S290.77,344.7,286,357.21s-6.75,21.45-5.76,23.84,31,70.11,31,70.11-5.37,9.93-8.55,12.52-7.34,5-5.95,6,11.71.59,13.5,0,15.1-9.94,17.08-11.33.2-4.17-1.19-6.75-2.58-2.78-2.78-4.37-16.29-70.12-16.29-70.12l13.71-15.69s-2,19.47-.6,23.44,23.42,72.95,23.42,72.95a65.86,65.86,0,0,1-7.86,7c-3.72,2.62-11.14,4.58-10.05,6.55s23.16.22,25.78.22,5.68.44,6.12-2.19-2.41-11.58-2.62-14.2-6.18-66.55-6.18-66.55l2.18-31a116.71,116.71,0,0,0,6-32.38,105.6,105.6,0,0,0-3.58-30S317.58,298,315.6,298,302.88,295.64,302.88,295.64Z" style="fill:#fff;stroke:#263238;stroke-miterlimit:10"></path><path d="M355,455.15c-.22-2.62-6.18-66.55-6.18-66.55l2.18-31a116.71,116.71,0,0,0,6-32.38,105.6,105.6,0,0,0-3.58-30S317.58,298,315.6,298s-12.72-2.38-12.72-2.38l-1.39,16.29S290.77,344.7,286,357.21s-6.75,21.45-5.76,23.84,31,70.11,31,70.11,7.38.12,12.79-2.47a2.81,2.81,0,0,1-.68-1.5c-.2-1.59-16.29-70.12-16.29-70.12l13.71-15.69s-2,19.47-.6,23.44,23.42,72.95,23.42,72.95,7.64,2.45,11.94.37A22.64,22.64,0,0,1,355,455.15Z" style="fill:#263238;stroke:#263238;stroke-miterlimit:10"></path><path d="M275.67,112.11l2.58,19.46,15.1,49.06,20.85,23.24s13.11,5,19.07,10.33,10.93,8.14,12.71,14.5-2,34.76-2.18,38.73,2.78,10.73,2.78,10.73l6.75,17.08s-22.64,7.15-34.95,5.36S302.49,298,302.49,298V273s-.6-8.54-.6-9.13-4.17-12.32-4.57-22.45-.2-15.89-.4-17.08-13.9-29-15.69-34.36-3.37-11.92-3.77-13.31-7.75-46.08-7.75-46.08-3.77-4.77-4.37-8.94-.79-6.75-.79-6.75Z" style="fill:#fff;stroke:#263238;stroke-miterlimit:10"></path><path d="M295.55,186.54l-15.2,12.33,16.57,25.46s-1.37,18.1-.54,23.86,2.87,22.19,2.87,22.19l3.63,25.26,51.05-2.19-9.88-32.52s-.41-28.36-1.23-35.76S332.54,210,332.54,210Z" style="fill:#9C27B0;stroke:#263238;stroke-miterlimit:10"></path><path d="M300.9,164.94s-6.36,6.95-6.16,12.51c.1,2.81,0,4.77-.6,5.77s-5,4.37-4.37,5.56l1.59,3.17s4,13.51,5.17,13.91,9.33-.2,9.33-.2-1.39,22.84.8,22.84,17.28-12.71,18.87-13.9,2.18-18.08,2.18-18.08,4.37,2.19-7.75-15.29S300.9,164.94,300.9,164.94Z" style="fill:#fff;stroke:#263238;stroke-miterlimit:10"></path><path d="M300.29,182.94c-.16,1.19-.69,2.11-1.18,2s-.75-1.09-.59-2.28.69-2.11,1.18-2S300.46,181.74,300.29,182.94Z" style="fill:#263238"></path><path d="M297.52,178.65s2.18-2.59,5.16.79" style="fill:none;stroke:#263238;stroke-miterlimit:10"></path><path d="M298.31,196.13c0,1.09-.57,2-1.29,2s-1.29-.89-1.29-2,.58-2,1.29-2S298.31,195,298.31,196.13Z" style="fill:#263238"></path><path d="M318.77,184.21s-4,29.4-6.95,41.91.2,24.63,3.58,23.64,5.36-12.52,10.13-21.85,10.52-9.74,14.1-7.15,7.15,12.31,7.35,12.91,0,10.52-1.59,20.45-2.78,13.31-.6,18.28,11.52,12.71,14.5-1-3.37-15.3-4.76-27,3-15.69-.8-24.23-11.72-11.92-14.5-15.1-4.77-10.32-5-11.12S318.77,184.21,318.77,184.21Z" style="fill:#263238;stroke:#263238;stroke-miterlimit:10"></path><path d="M299.7,166.53s19.07,21.06,22.85,26,5.16,7.95,8.34,6.36l3.18-1.59s3.37,1.79,8.14-1.59,7.75-3.58-1.39-19.47-14.3-23.63-24.63-20.65S299.31,159.58,299.7,166.53Z" style="fill:#9C27B0;stroke:#263238;stroke-miterlimit:10"></path><path d="M277.26,114.09s-1.19-7.54-2.58-7.15-11.32,5.56-11.13,6.56,0,5.16,2,5.16,12.32-3.18,12.32-3.18Z" style="fill:#fff;stroke:#263238;stroke-miterlimit:10"></path><line x1="271.9" y1="108.53" x2="275.27" y2="116.87" style="fill:#fff;stroke:#263238;stroke-miterlimit:10"></line><line x1="268.92" y1="109.92" x2="271.5" y2="117.67" style="fill:#fff;stroke:#263238;stroke-miterlimit:10"></line><line x1="266.14" y1="111.71" x2="267.92" y2="117.87" style="fill:#fff;stroke:#263238;stroke-miterlimit:10"></line><path d="M277.46,129s2-9.14,1.79-11.72-2.39-4.37-5-6-3,.4-1.59,2.19,2.58,3.37,2.58,3.37-4.76,3.58-4,7.35,2,4.17,2,4.17" style="fill:#fff;stroke:#263238;stroke-miterlimit:10"></path><path d="M322.94,266.84,300.7,245.39s-.4-6.36-1.59-8.94-6-5-6.95-5.76-3.78-2.78-5-.8-1.19,3-.79,3.78-3.78,6.55-3.78,9.33,3.58,6.16,6,7.55a36.06,36.06,0,0,0,6.76,2.58s16.08,19.47,20.06,24.23,13.5,11.33,15.29,10.53S340,271.21,340,271.21Z" style="fill:#fff;stroke:#263238;stroke-miterlimit:10"></path><path d="M330.89,223.14s-4.17,2.38-4.37,9.73-3.58,34-3.58,34l19.47,8.74s6-31.39,6.36-39.93-7.35-14.7-10.93-14.3" style="fill:#9C27B0;stroke:#263238;stroke-miterlimit:10"></path><path d="M315.6,290.47l7.57.93a31.24,31.24,0,0,0,7,.09c7.2-.71,23.36-2.18,24.75-1.25,1.79,1.19,2.78,4.56,3.18,5.36s1.42,9,7.58,29.63,6.36,30,6.36,30-6.76,5.36-13.91,7.35-22.84-2.39-28-2.39-7.34-.2-7.34-.2-4-45.09-5.37-51.84a117.4,117.4,0,0,0-4.17-14.3Z" style="fill:#fff;stroke:#263238;stroke-miterlimit:10"></path><path d="M308.05,289.08s-9.14,3.18-9.54,5.17.6,12.51,4,11.72,9.93-1.79,10.32-5.56S310.63,288.49,308.05,289.08Z" style="fill:#fff;stroke:#263238;stroke-miterlimit:10"></path><path d="M308.05,289.08,315,328.21s11.12-1,12.71-4.17-10.13-30.39-12.11-33.57S309.64,287.1,308.05,289.08Z" style="fill:#fff;stroke:#263238;stroke-miterlimit:10"></path></g></svg>