<svg xmlns="http://www.w3.org/2000/svg" viewBox="0 0 500 500"><g id="freepik--character-1--inject-47"><path d="M100.88,377.07s.57,6.36,1.51,16.88c1.39,15.48,3.6,40,6,66.46h73.94c-3.56-27.81-6.83-53.37-8.79-68.65-1.05-8.11-1.71-13.34-1.86-14.46l0-.23Z" style="fill:#263238"></path><path d="M111.23,386.37c.2,2.47.41,4.92.62,7.38,1.87,22.23,3.87,44.47,6.17,66.66h1.1c-2.42-22.21-4.6-44.44-6.86-66.67l-.75-7.37C111.49,386.2,111.21,386.2,111.23,386.37Z" style="fill:#263238"></path><path d="M83.64,377.07s1.14,6.43,3,17.07c2.75,15.49,7.06,39.91,11.74,66.27h50.42l1.64-10.8h0l.23-1.52.06-.4.86-5.66h0l.32-2.11,7.22-47.6,2.32-15.23Z" style="fill:#37474f"></path><path d="M67,451.42c-.37,3-.72,6-1.09,9h67.61c.14-1.85.25-3.15.3-3.79l0-.46c.77-.43,1.55-.86,2.32-1.27,3.65-1.94,6.86-3.48,9.54-4.68l1.45-.65c1.36-.58,2.54-1.07,3.56-1.48,2.57-1,4-1.46,4-1.46.09-.22.18-.42.26-.64,6.6-16.82,11.5-39.39,14.26-54.06,1.46-7.77,2.32-13.32,2.51-14.62,0-.2.05-.3.05-.3H77.86a141.63,141.63,0,0,0-7.51,16.93C57.55,429.09,67,451.42,67,451.42Z" style="fill:#263238"></path><path d="M158.26,444.77a155.43,155.43,0,0,0-24.44,11.38.28.28,0,0,0,.23.5c8.23-3.53,16.63-6.92,24.65-10.9A.54.54,0,0,0,158.26,444.77Z" style="fill:#37474f"></path><path d="M160.88,388.27c0-.28-.53-.34-.52,0,.06,9.78-.56,18.38-1.38,27.51-.39,4.24-3.8,27.68-11.15,26-1.23-.29-1.86-1.5-2.06-3.35-.23-2.23.61-5,1-7.19.82-4.91,1.47-9.83,1.89-14.79a133.76,133.76,0,0,0-.3-27.72.24.24,0,0,0-.47,0c0,12.8-.32,25.59-2.24,38.27-.92,6.1-4,15.27,2.39,16.21s10.69-14.42,11.48-18.62C161.72,412.81,161.8,400.15,160.88,388.27Z" style="fill:#37474f"></path><path d="M148,442.34a39.71,39.71,0,0,0-1.65,4.86,11.21,11.21,0,0,0-.69,4,.29.29,0,0,0,.51.11,14.07,14.07,0,0,0,1.71-3.88c.56-1.51,1.15-3,1.67-4.52A.82.82,0,0,0,148,442.34Z" style="fill:#37474f"></path><path d="M88.46,413.75c4,.28,7.85.79,11.82.32a20.67,20.67,0,0,0,10.3-4c6.52-5.06,9.37-13.33,11.14-21.09a.14.14,0,0,1,.28,0c-.74,6.73-2.19,13.69-6.54,19.11a20.8,20.8,0,0,1-6.93,5.71,20.27,20.27,0,0,1-9.17,1.89,44.73,44.73,0,0,1-11-1.48A.23.23,0,0,1,88.46,413.75Z" style="fill:#37474f"></path><path d="M89,377.84a147.15,147.15,0,0,0-6.81,17.3c-1,2.94-1.81,5.91-2.59,8.9s-1.42,6-2,9a101.37,101.37,0,0,0-1.69,18.38,75.85,75.85,0,0,0,2.2,18.32v.13c-.3,3.38-.56,6.76-.91,10.14,0-3.4.07-6.79.11-10.18l0,.12a67.36,67.36,0,0,1-3-18.5,79.66,79.66,0,0,1,.31-9.4,88.69,88.69,0,0,1,1.3-9.31,110.21,110.21,0,0,1,5-18A103.45,103.45,0,0,1,89,377.84Z" style="fill:#37474f"></path><path d="M124.1,207.65c-2.07,0-10.79-2.25-17.8,5-6.63,6.85-11.75,29.77-13.63,34.66s-8.62,4.74-11,10.4c-2,4.86,1.4,7.21,1.27,11-.1,2.91-3.57,6.82-1.54,11.43,1.86,4.18,6.16,3.94,8.53,5.49s3.14,7.63,7.61,9.84,9.19-1.49,11.67-1.12,4.39,8.39,12.58,8.82,11.48-6.1,15-7,11.62,2.58,16-1.08,5.83-9.15,7.84-11,5.57-1,8.37-5.47-1.21-8.09-1.28-12.3c0-2.93,2.88-5.23,1.68-9.86-1.65-6.38-9.21-6.09-11.19-12.68-1.54-5.16-3.24-26.93-15.3-33.87C134.62,205.1,124.1,207.65,124.1,207.65Z" style="fill:#263238"></path><path d="M93.08,246.13a7.36,7.36,0,0,1-2.54,2.42l-3,1.92a22.12,22.12,0,0,0-5.34,4.3,7.09,7.09,0,0,0-1.62,6,11.06,11.06,0,0,0,1.31,3,12.54,12.54,0,0,1,1.59,3.35,6.13,6.13,0,0,1-.85,3.77c-.53,1.07-1.09,2.08-1.56,3.12a8.35,8.35,0,0,0-.65,6.39A4.77,4.77,0,0,0,82.39,283a8.68,8.68,0,0,0,3.14,1.14c1.13.24,2.29.36,3.46.53a6,6,0,0,1,3.27,1.23A6.24,6.24,0,0,0,89,285c-1.16-.08-2.34-.1-3.53-.24A9.39,9.39,0,0,1,82,283.69a5.81,5.81,0,0,1-2.45-2.84c-1.06-2.36-.44-5.08.5-7.23.48-1.11,1-2.16,1.52-3.2a4.81,4.81,0,0,0,.69-2.95c-.44-1.94-2.3-3.88-2.77-6.39a7.88,7.88,0,0,1,2-7,22.38,22.38,0,0,1,5.79-4.19l3.09-1.66A8,8,0,0,0,93.08,246.13Z" style="fill:#263238"></path><path d="M153.15,223.43c1.72,3.86,2.56,8,3.79,12,.61,2,1.16,4,1.91,5.92a13.67,13.67,0,0,0,1.33,2.68,1.6,1.6,0,0,0,.42.52,2.3,2.3,0,0,0,.51.45c.4.29.84.56,1.28.82a60.1,60.1,0,0,1,5.34,3.43,10.69,10.69,0,0,1,3.94,5.19,6.64,6.64,0,0,1,.21,3.34,8.6,8.6,0,0,1-1.37,3,13.52,13.52,0,0,0-2.74,5.55c0-2.14,1.16-4.1,2.18-5.89a8.2,8.2,0,0,0,1.1-2.78,5.85,5.85,0,0,0-.35-2.86,10.42,10.42,0,0,0-3.71-4.55c-1.63-1.22-3.47-2.16-5.3-3.26-.46-.28-.91-.57-1.35-.9a4.77,4.77,0,0,1-1.22-1.31,15.36,15.36,0,0,1-1.41-3,54.17,54.17,0,0,1-1.77-6.1l-1.35-6.16A53.64,53.64,0,0,0,153.15,223.43Z" style="fill:#263238"></path><path d="M162.85,282.93c-1,1.08-1.37,2.61-1.9,4s-1,2.83-1.61,4.23a22.45,22.45,0,0,1-2.15,4.08,10,10,0,0,1-3.47,3.28c-3.08,1.42-6.41.75-9.25-.18-1.44-.47-2.84-1-4.26-1.45a9.25,9.25,0,0,0-4.36-.58,8.8,8.8,0,0,1,4.53-.06c1.49.32,2.93.76,4.37,1.1,2.84.7,5.9,1.16,8.37,0a9,9,0,0,0,3-2.81,28.34,28.34,0,0,0,2.25-3.78c.68-1.32,1.29-2.69,1.93-4.05.34-.68.68-1.35,1.06-2A4.44,4.44,0,0,1,162.85,282.93Z" style="fill:#263238"></path><path d="M149.27,289.5c24.07-9.28,54.25-30,55.13-38.66,1.28-12.72,4.21-28,1.51-55.17-.49-5-37.67-8.61-37.25-3.27.92,11.87,4.34,42.17,3.64,48.24-.49,4.28-19.86,23.65-32.47,38.33C125.64,295.47,136,294.61,149.27,289.5Z" style="fill:#f7a9a0"></path><path d="M206.82,167.43c1.82,8.12,0,30-2.31,34.14s-29.38-1.3-31.86-5.46-10.31-30.25-6.58-37.87S204.94,159,206.82,167.43Z" style="fill:#f7a9a0"></path><path d="M162.69,171.12c3.05,3.18,5.05-2.24,5.05-2.24s-1,8.49,3.41,10.56c4.26,2,6.45-4.65,6.61-5.12,0,.45-.77,8.27,3.88,9.89,4.83,1.67,5.88-5.35,6-5.81.09.44,1.33,6.23,5.14,6.65,6.55.73,3.77-14.15,7-18.42,0,0,7,1.32,7.28,1.41,0,0-1.52-10.94-7.52-14.93a4.6,4.6,0,0,0-5.75.42s-.25-4.66-3.87-6.05c-1.85-.71-4.64,1.63-4.64,1.63s-.36-3.72-3.65-4.76c-2.63-.83-5,1.65-5,1.65s-2-3.42-5-3.4C165.59,142.63,156.17,164.3,162.69,171.12Z" style="fill:#f7a9a0"></path><path d="M176.09,146.33a.06.06,0,0,0-.1-.07c-4.84,6.37-8.2,14.86-8.39,22.91,0,.26.42.38.49.09A83.89,83.89,0,0,1,176.09,146.33Z" style="fill:#263238"></path><path d="M185.2,149c.05-.08-.09-.16-.15-.08-5,6.59-8.48,16.25-7.59,25.55,0,.32.37.58.37.21C177.71,168.44,181.57,155.71,185.2,149Z" style="fill:#263238"></path><path d="M187.88,179c-.5-8.95,1.91-17.16,5.61-25.24,0-.1-.1-.16-.17-.08-2.88,3.45-4.7,8.85-5.76,13.16a23.62,23.62,0,0,0,0,12.18C187.61,179.2,187.89,179.22,187.88,179Z" style="fill:#263238"></path><path d="M167.74,168.88a26.83,26.83,0,0,0,.33,4.92,9,9,0,0,0,1.75,4.37,3,3,0,0,0,1.86,1,4.21,4.21,0,0,0,2.17-.29,5.26,5.26,0,0,0,2.71-3.32l1.09-3.45.17,3.62a15,15,0,0,0,1,4.69,5.31,5.31,0,0,0,2.89,3.22,3,3,0,0,0,3.66-1,9.17,9.17,0,0,0,1.55-4.31l.53-4.25.88,4.17a14.3,14.3,0,0,0,1.16,3.35,5.81,5.81,0,0,0,2.17,2.5,2.72,2.72,0,0,0,2.87-.11,6,6,0,0,0,1.75-2.87,47.78,47.78,0,0,0,1.49-7.27c.19-1.24.39-2.48.65-3.71a8.79,8.79,0,0,1,1.32-3.52,9.79,9.79,0,0,0-1,3.57c-.16,1.24-.26,2.49-.36,3.74a41.48,41.48,0,0,1-1.13,7.5,7.08,7.08,0,0,1-2,3.51,3.87,3.87,0,0,1-4.22.32,7,7,0,0,1-2.77-3,15.27,15.27,0,0,1-1.35-3.71l1.41-.08a10.41,10.41,0,0,1-1.78,5.11,4.41,4.41,0,0,1-2.44,1.68,5.07,5.07,0,0,1-2.92-.22,6.67,6.67,0,0,1-3.65-4.08,16.06,16.06,0,0,1-1-5.17l1.27.17a6.3,6.3,0,0,1-3.57,3.93,5.4,5.4,0,0,1-2.7.22,3.88,3.88,0,0,1-2.32-1.42,9.33,9.33,0,0,1-1.58-4.82A23,23,0,0,1,167.74,168.88Z" style="fill:#263238"></path><path d="M172.34,198s-28.7-30.91-10.53-36c4.4-1.24,23.89,1.44,23.52,5.35-.47,5-8.74,5.62-14,5.17,0,0,8.4,8.74,4,16.4A24,24,0,0,0,172.34,198Z" style="fill:#f7a9a0"></path><path d="M160.57,162.29a18.34,18.34,0,0,1,5.32-.75,38.91,38.91,0,0,1,5.4.25,62,62,0,0,1,10.63,2,9.79,9.79,0,0,1,2.63,1.16,3.85,3.85,0,0,1,1.16,1.15,3.12,3.12,0,0,1,.36.84,3,3,0,0,1,.05.89,4.53,4.53,0,0,1-1.42,2.81,8.43,8.43,0,0,1-2.49,1.57,16.38,16.38,0,0,1-5.46,1.09,36.78,36.78,0,0,1-5.46-.15l.5-1.06a22.27,22.27,0,0,1,2.45,3.33,20.68,20.68,0,0,1,1.77,3.71,14.22,14.22,0,0,1,.76,4,10.55,10.55,0,0,1-.6,4,12.27,12.27,0,0,0,.17-4,15,15,0,0,0-1.07-3.78,19.85,19.85,0,0,0-1.89-3.44,21.26,21.26,0,0,0-2.48-3l-1.14-1.13,1.64.07a41.79,41.79,0,0,0,5.25,0,16.09,16.09,0,0,0,5-1.06c1.48-.62,2.89-1.75,3-3.12.21-1.2-1.56-2-3.15-2.58a52.27,52.27,0,0,0-5.1-1.36c-1.73-.39-3.47-.76-5.22-1C167.67,162.22,164.1,161.69,160.57,162.29Z" style="fill:#263238"></path><path d="M205.94,259.18l-42.27-9.88s-16.24,16.8-27.85,31.32-7.48,19.69,13.83,10.44S192.6,269.8,205.94,259.18Z" style="fill:#455a64"></path><path d="M163.1,254.29a36.65,36.65,0,0,0,4.36,1.23c1.46.4,2.91.81,4.38,1.18,2.82.72,5.66,1.36,8.51,2a171.16,171.16,0,0,0,17.27,3c.12,0,.15-.19,0-.21-5.77-1.35-11.6-2.43-17.4-3.65L171.7,256c-1.43-.3-2.86-.57-4.28-.88a42.75,42.75,0,0,0-4.3-.92C163,254.14,163,254.26,163.1,254.29Z" style="fill:#263238"></path><path d="M171,280.9c-6.94,3.6-14.18,7.05-21.39,10.17-21.31,9.24-25.44,4.08-13.83-10.44.42-.51.83-1,1.25-1.55Z" style="fill:#37474f"></path><path d="M77.86,377h93.91l-5.71-30.77s8.57-7.76,6.78-18.11c-2.5-14.54-19.75-37.37-27.18-45.88-9.2-10.52-26.06-12.33-36,2C85.25,319.45,77.86,377,77.86,377Z" style="fill:#f7a9a0"></path><path d="M150.61,361a5.5,5.5,0,0,0-1.55,3.1,8.88,8.88,0,0,0-.13,1.72,7.79,7.79,0,0,0,.16,1.7c.22,1.16,1.09,1.35,1.36.13a5.78,5.78,0,0,0,.07-1.72,4.05,4.05,0,0,0-.52-1.7,3.31,3.31,0,0,1,1,1.61,4.77,4.77,0,0,1,.21,1.93,2.13,2.13,0,0,1-.34,1,1.3,1.3,0,0,1-1.17.59,1.43,1.43,0,0,1-1.12-.64,3.33,3.33,0,0,1-.43-1,7.29,7.29,0,0,1-.17-1.95,6.67,6.67,0,0,1,.29-1.92,5.81,5.81,0,0,1,.87-1.72A3.1,3.1,0,0,1,150.61,361Z" style="fill:#263238"></path><path d="M79.85,365l70.56-9.21,20.7,7.47-5.05-17s8.57-7.76,6.78-18.11c-2.5-14.54-19.75-37.37-27.18-45.88-9.2-10.52-26.06-12.33-36,2C85.25,319.45,79.85,365,79.85,365Z" style="fill:#455a64"></path><path d="M139.92,342.92a64.82,64.82,0,0,1,11.31,1.37c1.85.42,3.68.95,5.52,1.52.91.29,1.83.53,2.75.78a10,10,0,0,0,2.92.43c.08,0,.09.16,0,.17a17.14,17.14,0,0,1-2.77.14,17.33,17.33,0,0,1-2.68-.4c-1.89-.41-3.76-.92-5.64-1.35-3.8-.87-7.6-1.74-11.44-2.29C139.72,343.27,139.74,342.91,139.92,342.92Z" style="fill:#263238"></path><path d="M131,347.61a70.73,70.73,0,0,1,9.26-1.23,45.47,45.47,0,0,1,4.67,0c.75,0,1.49.07,2.24.13s1.64.26,2.46.31c.08,0,.09.16,0,.16-.78,0-1.55.12-2.32.15l-2.33.1c-1.55.07-3.1.17-4.66.22-3.11.1-6.2.25-9.31.48C130.81,347.93,130.81,347.65,131,347.61Z" style="fill:#263238"></path><path d="M149.69,357.25s3,7.69,9.81,9.78c0,0,1-7-1-9.73-1-1.37-6.4-2.86-7.21-2.07A12.31,12.31,0,0,0,149.69,357.25Z" style="fill:#9C27B0"></path><path d="M149.69,357.25s3,7.69,9.81,9.78c0,0,1-7-1-9.73-1-1.37-6.4-2.86-7.21-2.07A12.31,12.31,0,0,0,149.69,357.25Z" style="fill:#455a64"></path><path d="M149.69,357.25a22.41,22.41,0,0,0,1.85,3,23.3,23.3,0,0,0,2.27,2.68,16.2,16.2,0,0,0,2.72,2.17,13.89,13.89,0,0,0,3.11,1.43L159,367a30.53,30.53,0,0,0,.21-5,15.07,15.07,0,0,0-.3-2.44,5.32,5.32,0,0,0-.89-2.1,6.41,6.41,0,0,0-2-1.21,14.18,14.18,0,0,0-2.36-.78,10.42,10.42,0,0,0-1.22-.22,1.65,1.65,0,0,0-1.1.12A14.31,14.31,0,0,0,149.69,357.25Zm0,0a10.56,10.56,0,0,1,1.45-2.11,2,2,0,0,1,1.33-.34,6.9,6.9,0,0,1,1.3.13,15.42,15.42,0,0,1,2.51.65,6.6,6.6,0,0,1,2.38,1.28,5.91,5.91,0,0,1,1.18,2.48,13.59,13.59,0,0,1,.37,2.59,26.28,26.28,0,0,1-.23,5.17l-.08.58-.54-.19a13.07,13.07,0,0,1-3.31-1.63,14.36,14.36,0,0,1-2.73-2.43,17.83,17.83,0,0,1-2.12-2.92A17.21,17.21,0,0,1,149.69,357.25Z" style="fill:#263238"></path><path d="M149.69,357.25a12.93,12.93,0,0,1,1.57-2,.25.25,0,0,1,.13-.09.61.61,0,0,1,.18-.07.57.57,0,0,1,.15,0,7.92,7.92,0,0,1,3.06.4,17.09,17.09,0,0,1-1.32,2.88,4.66,4.66,0,0,1-2.44,1.51A16.4,16.4,0,0,1,149.69,357.25Z" style="fill:#050400;opacity:0.1"></path><path d="M148.94,357.5s-5.41,8.45-10.18,10.6c0,0-2.15-5.36.17-9.93,1-2.05,8.38-4.26,9-3.22A10.15,10.15,0,0,1,148.94,357.5Z" style="fill:#9C27B0"></path><path d="M148.94,357.5s-5.41,8.45-10.18,10.6c0,0-2.15-5.36.17-9.93,1-2.05,8.38-4.26,9-3.22A10.15,10.15,0,0,1,148.94,357.5Z" style="fill:#455a64"></path><path d="M148.94,357.5c-.6,1.09-1.29,2.12-2,3.15a36.25,36.25,0,0,1-2.27,3,27.69,27.69,0,0,1-2.58,2.73,14,14,0,0,1-3.14,2.2l-.47.22-.18-.48a15.14,15.14,0,0,1-.94-5.84,11.79,11.79,0,0,1,.52-2.94,9.89,9.89,0,0,1,.57-1.39,3.21,3.21,0,0,1,1.08-1.22,11.43,11.43,0,0,1,2.65-1.35,19.15,19.15,0,0,1,2.8-.82,9.94,9.94,0,0,1,1.45-.22,2.51,2.51,0,0,1,1.52.24A7.22,7.22,0,0,1,148.94,357.5Zm0,0a13.64,13.64,0,0,0-.51-1.34,5.06,5.06,0,0,0-.66-1.18,2.38,2.38,0,0,0-1.28,0c-.46.08-.92.18-1.37.3a15.91,15.91,0,0,0-5.06,2.33,2.41,2.41,0,0,0-.78.92,8.6,8.6,0,0,0-.48,1.28,10.66,10.66,0,0,0-.44,2.7,15.19,15.19,0,0,0,.84,5.44l-.64-.25a13.62,13.62,0,0,0,3-2,30,30,0,0,0,2.65-2.52c.85-.89,1.65-1.83,2.45-2.77S148.19,358.49,148.94,357.5Z" style="fill:#263238"></path><path d="M147.65,359.38a5.77,5.77,0,0,1-2.34-2.31A4.94,4.94,0,0,1,145,355c1.51-.38,2.75-.46,3-.07a10.23,10.23,0,0,1,1,2.56S148.46,358.26,147.65,359.38Z" style="fill:#050400;opacity:0.1"></path><path d="M146.48,355.24a3.26,3.26,0,1,1,2.65,3.76A3.26,3.26,0,0,1,146.48,355.24Z" style="fill:#455a64"></path><path d="M146.48,355.24a3.45,3.45,0,1,1,6.79,1.17,3.45,3.45,0,0,1-4.17,2.78A3.45,3.45,0,0,1,146.48,355.24Zm0,0a3.07,3.07,0,0,0,2.68,3.58,3.08,3.08,0,1,0-2.68-3.58Z" style="fill:#263238"></path><path d="M113.33,292.32c-6.69,8.88-41.45,43.78-43.37,46.9-1.29,2.11,10,13.4,9.89,14.82C79.24,359.83,66.16,398,61.21,394c-6.52-5.27-34.11-41.39-29.89-57.34s69.41-53.69,79.82-56.86S119.93,283.56,113.33,292.32Z" style="fill:#f7a9a0"></path><path d="M47.51,311.29l42,10.83s14-15,25.94-29.28,10.52-20.93-11-12.16S61.09,301,47.51,311.29Z" style="fill:#455a64"></path><path d="M90.23,317.14a38.63,38.63,0,0,0-4.33-1.33c-1.45-.43-2.9-.88-4.35-1.28-2.81-.78-5.63-1.48-8.46-2.15A173.69,173.69,0,0,0,55.88,309c-.12,0-.15.18,0,.21,5.74,1.48,11.54,2.68,17.31,4l8.51,2c1.42.33,2.85.63,4.26,1a42.24,42.24,0,0,0,4.28,1C90.29,317.29,90.3,317.17,90.23,317.14Z" style="fill:#263238"></path><path d="M89.48,321.92c1.67-1.95,3.25-4,5-5.88s3.49-3.86,5.27-5.77c3.59-3.87,7.24-7.66,11-11.41.06-.05.16,0,.11.09q-2.89,3.42-5.83,6.77l0,0c1.24-1,2.53-1.85,3.85-2.7.06,0,.12.05.07.1-1.16,1.07-2.34,2.11-3.59,3.08l-1.81,1.41c-.17.13-.35.25-.54.38-.79.89-1.57,1.79-2.37,2.68-1.75,1.93-3.49,3.87-5.28,5.77s-3.77,3.77-5.63,5.68C89.57,322.19,89.38,322,89.48,321.92Z" style="fill:#263238"></path><path d="M88.81,405.21c4.21-3.68-2.53-6.53-2.53-6.53S97,400.44,99.84,395c2.76-5.28-5.51-8.44-6.1-8.67.56.09,10.44,1.45,12.76-4.34,2.4-6-6.45-7.77-7-7.88.56-.09,8-1.33,8.73-6.13,1.3-8.26-20.19-6.51-25.41-10.81,0,0,.54-10.72.66-11,0,0-1.62,4.33-5.21,5.85-4.46,1.89-8.53,3.16-10.13,5.61a6.13,6.13,0,0,0,.2,7.31s-5.92.05-7.89,4.55c-1,2.32,1.8,6,1.8,6s-4.74.23-6.24,4.35c-1.21,3.28,1.79,6.45,1.79,6.45s-4.45,2.34-4.59,6.09C52.88,399.88,79.8,413.08,88.81,405.21Z" style="fill:#f7a9a0"></path><path d="M58.18,386.79a.08.08,0,0,0-.09.13c7.79,6.5,18.35,11.25,28.53,11.95.34,0,.52-.51.16-.61C76.42,395.54,67.44,392.29,58.18,386.79Z" style="fill:#263238"></path><path d="M62.07,375.4c-.1-.06-.2.11-.1.19,8.07,6.65,20.1,11.68,31.94,11.1.4,0,.75-.44.28-.45C86.29,386,70.38,380.4,62.07,375.4Z" style="fill:#263238"></path><path d="M100.29,373.75c-11.37.12-21.63-3.42-31.65-8.57-.13-.07-.21.12-.12.21,4.22,3.85,11,6.47,16.35,8.07a30.05,30.05,0,0,0,15.43.69C100.5,374.11,100.54,373.75,100.29,373.75Z" style="fill:#263238"></path><path d="M57.48,386.23c-1.91-1.88-3.36-4.35-2.57-7.1a5.47,5.47,0,0,1,2.29-3c1.36-.88,3.37-.87,4.33-.95-1.74-2.24-2.65-5.32-1.11-7.91A5.39,5.39,0,0,1,63.59,365a17.35,17.35,0,0,1,4.6-.38,6.27,6.27,0,0,1-2-5.25,6.79,6.79,0,0,1,3.57-5c2.15-1.31,4.66-1.82,7-2.59a16.57,16.57,0,0,0,3.57-1.47,10.54,10.54,0,0,0,2.94-3.89c.1-.24.2,0,.12.2a10.71,10.71,0,0,1-1.84,3.14,11.44,11.44,0,0,1-2.29,1.93c-2,1.32-4.44,1.88-6.63,2.88a9.64,9.64,0,0,0-4.75,4.06,5.78,5.78,0,0,0,.55,6.07c.08.08,0,.23-.13.24a16.46,16.46,0,0,0-4,1A5.71,5.71,0,0,0,61.67,368a7.45,7.45,0,0,0,.56,7.4,12.55,12.55,0,0,0-4.14,1.63,5.37,5.37,0,0,0-1.74,2.5,6.41,6.41,0,0,0,1.49,6.56.18.18,0,0,1,0,.09h0s0,0,0,.05a.12.12,0,0,1,0,.09h0s-1.41.8-1.49.82,0-.05,0-.08A10.2,10.2,0,0,1,57.48,386.23Z" style="fill:#263238"></path><path d="M83.44,346.45c.08,1.76.11,3.52.15,5.28s.07,3.52.08,5.28l-.15-.36a12.52,12.52,0,0,0,4.45,1.9,41.73,41.73,0,0,0,5,.74,49.32,49.32,0,0,1,10.16,2.09,12.22,12.22,0,0,1,4.67,2.75,4.93,4.93,0,0,1,1.36,2.59,5.27,5.27,0,0,1-.33,2.89,7.39,7.39,0,0,1-4,3.68,17.14,17.14,0,0,1-5.09,1.36l0-.91a17,17,0,0,1,2.62.93,12.7,12.7,0,0,1,2.38,1.4,6.3,6.3,0,0,1,1.82,2.09,3.94,3.94,0,0,1,.36,2.67,4,4,0,0,0-.61-2.53,6.18,6.18,0,0,0-1.87-1.8,12.31,12.31,0,0,0-2.37-1.14,16.65,16.65,0,0,0-2.52-.71l-2.38-.46,2.42-.45a17.86,17.86,0,0,0,4.69-1.51,6.46,6.46,0,0,0,3.3-3.12,4,4,0,0,0,.19-2.13,3.75,3.75,0,0,0-1-1.85,11,11,0,0,0-4.13-2.34,53.06,53.06,0,0,0-9.83-2.15c-3.33-.45-7-.95-9.89-3.3l-.16-.13V357c.1-1.75.2-3.51.32-5.26S83.28,348.21,83.44,346.45Z" style="fill:#263238"></path><path d="M119.9,278.76c.47,1.72,9.11,12.62,17,12,2.57-.22,2-14.27,2-14.27l.2-1,2.73-14.65-17.47-10.34-2.52-1.36s-.49,4.06-1,9.12c0,.23-.06.46-.08.72s-.08.55-.1.82c-.1.75-.19,1.52-.26,2.29-.06.59-.12,1.16-.16,1.78s-.09,1.22-.15,1.83A96.15,96.15,0,0,0,119.9,278.76Z" style="fill:#f7a9a0"></path><path d="M120.79,258.18a29.89,29.89,0,0,0,18.29,17.23l2.73-14.65-17.47-10.34-2.52-1.36S121.33,253.12,120.79,258.18Z" style="fill:#263238"></path><path d="M158.84,236.57c4.22,25.81-10.77,31.25-16.33,32.16-5.06.82-22.37,3-29.24-22.27s3.81-35.37,15.27-37.85S154.62,210.75,158.84,236.57Z" style="fill:#f7a9a0"></path><path d="M136.13,213.88s1.71,3.88.77,7c-1.92,6.48-9.43,6.05-11.54,8.82-2,2.6-.43,7.1-2.18,9.67-2.43,3.55-4.76,1.65-4.91,3.8s-.48,9-3,10.27-21.68-40.89,13.23-45c0,0,4.55-3,12.43-.14,11.21,4,15.13,17.39,15.13,17.39a8.71,8.71,0,0,1-3.52-1c-1.91-1.21-2.91-2.18-4.29-2.94-2.16-1.2-3.18,0-5.42-1.1C139.43,219,136.13,213.88,136.13,213.88Z" style="fill:#263238"></path><path d="M135.58,212.45a23.49,23.49,0,0,1,1.85,5.15,9.84,9.84,0,0,1,.08,5.27A7.32,7.32,0,0,1,134,226.6c-1.56.87-3.35,1.33-5,2.32a5.47,5.47,0,0,0-2,2.11,7.42,7.42,0,0,0-.6,2.83c-.09,1.84-.18,3.65-1.16,5.11a6.08,6.08,0,0,1-4.35,2.68c-1.74.28-3.75.1-5.34,1.14,1.67-.91,3.55-.57,5.4-.72a6.56,6.56,0,0,0,4.83-2.73c1.21-1.59,1.28-3.65,1.41-5.42a6.42,6.42,0,0,1,.55-2.52,4.79,4.79,0,0,1,1.77-1.75c1.48-.92,3.29-1.42,4.93-2.36a9.58,9.58,0,0,0,2.26-1.75,5.69,5.69,0,0,0,1.49-2.47,10.25,10.25,0,0,0-.31-5.58A23.54,23.54,0,0,0,135.58,212.45Z" style="fill:#263238"></path><path d="M136.49,213.93a19.32,19.32,0,0,0,2.44,4.51,9.07,9.07,0,0,0,4.09,3.28,13.81,13.81,0,0,0,2.54.55,4.1,4.1,0,0,1,2.07,1,13.1,13.1,0,0,0,1.84,1.8,5.69,5.69,0,0,0,2.4.94,6.4,6.4,0,0,1-2.14-1.27,12.92,12.92,0,0,1-1.6-1.93,4.46,4.46,0,0,0-2.4-1.3,13.75,13.75,0,0,1-2.41-.56,9.52,9.52,0,0,1-3.84-2.9A38.18,38.18,0,0,1,136.49,213.93Z" style="fill:#263238"></path><path d="M117.7,247.77s-6.31-7.71-9.85-5.4,1.63,13.78,6.09,15.07a4.42,4.42,0,0,0,5.73-2.82Z" style="fill:#f7a9a0"></path><path d="M109.42,245.62a.06.06,0,0,0,0,.12c3.14,1,4.95,3.7,6.29,6.54-1-1.06-2.27-1.58-3.69-.39-.08.06,0,.18.09.15a2.73,2.73,0,0,1,3.06.72,13.65,13.65,0,0,1,1.61,2.31c.17.26.65.08.52-.22l0-.07C117,250.89,113.61,245.7,109.42,245.62Z" style="fill:#263238"></path><path d="M148.92,230.75a14.61,14.61,0,0,1-1.75,0,2.85,2.85,0,0,1-1.79-.35.93.93,0,0,1-.21-1.09,2.25,2.25,0,0,1,2.06-1,3.27,3.27,0,0,1,2.25.73A1,1,0,0,1,148.92,230.75Z" style="fill:#263238"></path><path d="M132.65,236.72a17.24,17.24,0,0,0,1.75.16,2.87,2.87,0,0,0,1.81-.18.91.91,0,0,0,.32-1.06,2.23,2.23,0,0,0-2-1.14,3.24,3.24,0,0,0-2.31.5A1,1,0,0,0,132.65,236.72Z" style="fill:#263238"></path><path d="M136.69,239.81c0-.06-.12.11-.1.18.44,1.67.65,3.66-.75,4.57,0,0,0,.11,0,.09C137.68,244,137.37,241.32,136.69,239.81Z" style="fill:#263238"></path><path d="M134.78,238.39c-2.76.41-1.74,5.89.82,5.51S137.09,238,134.78,238.39Z" style="fill:#263238"></path><path d="M133.76,238.88c-.42.4-.79,1-1.36,1.2s-1.27-.29-1.81-.76c-.05,0-.09,0-.08.08.18,1,.79,2.06,1.94,2s1.62-1.11,1.69-2.22C134.15,239,133.93,238.72,133.76,238.88Z" style="fill:#263238"></path><path d="M146.9,237.62c0-.06.15.06.16.13.25,1.71.82,3.63,2.46,3.92,0,0,.06.1,0,.1C147.6,241.84,146.86,239.28,146.9,237.62Z" style="fill:#263238"></path><path d="M148.1,235.57c2.7-.69,3.9,4.76,1.39,5.4S145.84,236.16,148.1,235.57Z" style="fill:#263238"></path><path d="M149.32,235.68c.49.2,1,.63,1.55.55s.92-.78,1.18-1.42c0-.07.08,0,.1,0,.25,1,.15,2.19-.81,2.61s-1.74-.36-2.22-1.35C149,235.93,149.12,235.61,149.32,235.68Z" style="fill:#263238"></path><path d="M140.3,253.15c.46.34.95.84,1.58.8a4.67,4.67,0,0,0,1.78-.68.05.05,0,0,1,.08.07,2.34,2.34,0,0,1-2,1.24,1.86,1.86,0,0,1-1.56-1.33C140.1,253.15,140.23,253.1,140.3,253.15Z" style="fill:#263238"></path><path d="M146.17,245.61s.85,2.47,1.09,3.66c0,.11-.26.22-.66.33,0,0,0,0,0,0a5.77,5.77,0,0,1-5.93-1c-.11-.1,0-.25.14-.2a8.76,8.76,0,0,0,5.48.46c0-.35-1.6-4.17-1.41-4.22a10.47,10.47,0,0,1,2.83.07c-1.62-5.18-4.07-10.06-5.61-15.24a.17.17,0,0,1,.3-.14c2.92,4.93,4.92,10.85,6.74,16.16C149.32,246.13,146.69,245.72,146.17,245.61Z" style="fill:#263238"></path><path d="M145.67,249.12a6.15,6.15,0,0,1-2,2.47,2.76,2.76,0,0,1-1.63.5c-1.27,0-1.57-1.12-1.58-2.11a6.57,6.57,0,0,1,.19-1.57A8.12,8.12,0,0,0,145.67,249.12Z" style="fill:#263238"></path><path d="M143.7,251.59a2.76,2.76,0,0,1-1.63.5c-1.27,0-1.57-1.12-1.58-2.11A2.89,2.89,0,0,1,143.7,251.59Z" style="fill:#ff9cbd"></path></g><g id="freepik--character-3--inject-47"><path d="M360.64,377.07s.56,6.36,1.5,16.88c1.39,15.48,3.6,40,6,66.46h73.95c-3.57-27.81-6.84-53.37-8.8-68.65-1.05-8.11-1.71-13.34-1.85-14.46,0-.15,0-.23,0-.23Z" style="fill:#37474f"></path><path d="M371,386.37c.2,2.47.42,4.92.62,7.38,1.87,22.23,3.88,44.47,6.18,66.66h1.09c-2.41-22.21-4.6-44.44-6.86-66.67l-.75-7.37C371.24,386.2,371,386.2,371,386.37Z" style="fill:#263238"></path><path d="M343.4,377.07s1.14,6.43,3,17.07c2.74,15.49,7.06,39.91,11.74,66.27h50.41l1.64-10.8h0l.23-1.52.06-.4.87-5.66h0l.31-2.11,7.23-47.6,2.31-15.23Z" style="fill:#263238"></path><path d="M326.72,451.42q-.54,4.44-1.08,9h67.6c.15-1.85.25-3.15.3-3.79l0-.46c.77-.43,1.55-.86,2.32-1.27,3.65-1.94,6.86-3.48,9.54-4.68l1.46-.65c1.35-.58,2.54-1.07,3.55-1.48,2.58-1,4-1.46,4-1.46.08-.22.17-.42.25-.64,6.6-16.82,11.5-39.39,14.26-54.06,1.46-7.77,2.32-13.32,2.52-14.62,0-.2,0-.3,0-.3H337.61a139.9,139.9,0,0,0-7.5,16.93C317.3,429.09,326.72,451.42,326.72,451.42Z" style="fill:#37474f"></path><path d="M418,444.77a155.43,155.43,0,0,0-24.44,11.38c-.3.17-.1.65.23.5,8.23-3.53,16.63-6.92,24.66-10.9A.54.54,0,0,0,418,444.77Z" style="fill:#263238"></path><path d="M420.63,388.27c0-.28-.52-.34-.52,0a274.56,274.56,0,0,1-1.38,27.51c-.38,4.24-3.8,27.68-11.15,26-1.23-.29-1.86-1.5-2.05-3.35-.23-2.23.61-5,1-7.19.82-4.91,1.48-9.83,1.9-14.79a135.16,135.16,0,0,0-.3-27.72.24.24,0,0,0-.48,0c0,12.8-.32,25.59-2.23,38.27-.92,6.1-4,15.27,2.38,16.21s10.69-14.42,11.49-18.62C421.47,412.81,421.56,400.15,420.63,388.27Z" style="fill:#263238"></path><path d="M407.78,442.34a39.76,39.76,0,0,0-1.66,4.86,11,11,0,0,0-.68,4c0,.26.37.29.5.11a13.78,13.78,0,0,0,1.71-3.88c.56-1.51,1.15-3,1.67-4.52A.82.82,0,0,0,407.78,442.34Z" style="fill:#263238"></path><path d="M348.7,377.84a145.37,145.37,0,0,0-6.8,17.3c-1,2.94-1.82,5.91-2.6,8.9s-1.41,6-2,9a102.27,102.27,0,0,0-1.69,18.38,83.56,83.56,0,0,0,.55,9.22,78.58,78.58,0,0,0,1.65,9.1l0,.08v.05c-.3,3.38-.55,6.76-.91,10.14,0-3.4.08-6.79.11-10.18l0,.12a67.35,67.35,0,0,1-3-18.5,77.57,77.57,0,0,1,.3-9.4,88.69,88.69,0,0,1,1.3-9.31,110.21,110.21,0,0,1,5-18A104.28,104.28,0,0,1,348.7,377.84Z" style="fill:#263238"></path><path d="M414.54,289.65c24.08-9.27,51.88-32.07,52.76-40.75,1.28-12.72,4.21-28,1.51-55.17-.49-5-37.67-8.61-37.25-3.27.93,11.87,4.34,42.16,3.64,48.24-.49,4.28-19.86,23.65-32.47,38.32C388.54,293.53,401.26,294.76,414.54,289.65Z" style="fill:#d3766a"></path><path d="M469.72,165.49c1.82,8.12,0,30-2.31,34.14s-29.38-1.31-31.86-5.46S425.24,163.92,429,156.3,467.84,157.08,469.72,165.49Z" style="fill:#d3766a"></path><path d="M425.59,169.18c3.05,3.18,5.05-2.24,5.05-2.24s-1,8.49,3.41,10.55c4.26,2,6.45-4.64,6.61-5.12-.05.45-.77,8.28,3.88,9.89,4.83,1.68,5.88-5.35,5.95-5.8.09.44,1.33,6.22,5.14,6.65,6.55.73,3.77-14.15,7-18.42,0,0,7,1.32,7.28,1.41,0,0-1.52-10.94-7.52-14.94a4.61,4.61,0,0,0-5.75.43s-.25-4.67-3.87-6.05c-1.85-.71-4.64,1.63-4.64,1.63s-.36-3.73-3.65-4.76c-2.63-.83-5,1.65-5,1.65s-2-3.42-5-3.4C428.49,140.68,419.07,162.36,425.59,169.18Z" style="fill:#d3766a"></path><path d="M439,144.39a.06.06,0,0,0-.1-.07c-4.84,6.37-8.2,14.86-8.39,22.9,0,.27.42.39.49.1A83.77,83.77,0,0,1,439,144.39Z" style="fill:#263238"></path><path d="M448.1,147.05c0-.09-.09-.16-.15-.08-4.95,6.59-8.48,16.25-7.59,25.55,0,.32.37.58.37.21C440.61,166.5,444.47,153.77,448.1,147.05Z" style="fill:#263238"></path><path d="M450.78,177.09c-.5-9,1.91-17.16,5.61-25.24.05-.11-.1-.16-.17-.09-2.88,3.46-4.7,8.86-5.76,13.17a23.58,23.58,0,0,0,0,12.17C450.51,177.26,450.79,177.28,450.78,177.09Z" style="fill:#263238"></path><path d="M430.64,166.94a26.89,26.89,0,0,0,.33,4.92,9,9,0,0,0,1.75,4.37,3,3,0,0,0,1.86,1,4.32,4.32,0,0,0,2.17-.29,5.26,5.26,0,0,0,2.71-3.32l1.09-3.45.17,3.62a15,15,0,0,0,1,4.69,5.34,5.34,0,0,0,2.89,3.22,3,3,0,0,0,3.66-1,9.17,9.17,0,0,0,1.55-4.31l.53-4.25.88,4.17a13.89,13.89,0,0,0,1.17,3.35,5.65,5.65,0,0,0,2.16,2.49,2.74,2.74,0,0,0,2.87-.1,6,6,0,0,0,1.75-2.87,48,48,0,0,0,1.49-7.27c.19-1.24.39-2.48.65-3.72a8.81,8.81,0,0,1,1.32-3.51,9.79,9.79,0,0,0-1,3.57c-.16,1.24-.26,2.48-.36,3.73a41.45,41.45,0,0,1-1.13,7.51,7.08,7.08,0,0,1-2,3.51,3.87,3.87,0,0,1-4.22.32,7,7,0,0,1-2.77-3,15.27,15.27,0,0,1-1.35-3.71l1.41-.08a10.53,10.53,0,0,1-1.77,5.11A4.4,4.4,0,0,1,447,183.3a5,5,0,0,1-2.92-.21,6.67,6.67,0,0,1-3.65-4.08,16.07,16.07,0,0,1-1-5.18l1.27.17a6.29,6.29,0,0,1-3.57,3.94,5.29,5.29,0,0,1-2.7.21,3.86,3.86,0,0,1-2.32-1.41,9.33,9.33,0,0,1-1.58-4.82A23,23,0,0,1,430.64,166.94Z" style="fill:#263238"></path><path d="M435.24,196.08s-28.7-30.9-10.52-36c4.39-1.24,23.88,1.44,23.51,5.34-.47,5-8.74,5.63-14,5.18,0,0,8.4,8.74,4.05,16.4A24,24,0,0,0,435.24,196.08Z" style="fill:#d3766a"></path><path d="M423.47,160.35a18.34,18.34,0,0,1,5.32-.75,40.52,40.52,0,0,1,5.4.24,62,62,0,0,1,10.63,2,9.79,9.79,0,0,1,2.63,1.16,3.85,3.85,0,0,1,1.16,1.15,3.19,3.19,0,0,1,.36.83,3.1,3.1,0,0,1,0,.9,4.53,4.53,0,0,1-1.42,2.81,8.43,8.43,0,0,1-2.49,1.57,16.38,16.38,0,0,1-5.46,1.09,38.19,38.19,0,0,1-5.46-.15l.5-1.06a21.77,21.77,0,0,1,2.45,3.33,20.05,20.05,0,0,1,1.77,3.71,14.22,14.22,0,0,1,.76,4,10.57,10.57,0,0,1-.6,4,12.27,12.27,0,0,0,.17-4,15,15,0,0,0-1.07-3.78,19.49,19.49,0,0,0-1.89-3.44,20.71,20.71,0,0,0-2.48-3l-1.14-1.13,1.64.06a40,40,0,0,0,5.25,0,16.09,16.09,0,0,0,5-1.06c1.48-.63,2.89-1.75,3-3.13.21-1.19-1.56-2-3.15-2.57a52.27,52.27,0,0,0-5.1-1.36c-1.73-.39-3.47-.76-5.22-1C430.57,160.28,427,159.75,423.47,160.35Z" style="fill:#263238"></path><path d="M337.62,377h93.9l-5.71-30.77s8.57-7.76,6.79-18.11c-2.51-14.54-19.76-37.37-27.19-45.88-9.19-10.52-26.06-12.33-36,2C345,319.45,337.62,377,337.62,377Z" style="fill:#d3766a"></path><path d="M410.36,361a5.56,5.56,0,0,0-1.55,3.1,8.88,8.88,0,0,0-.13,1.72,7.79,7.79,0,0,0,.16,1.7c.22,1.16,1.09,1.35,1.36.13a5.18,5.18,0,0,0,.07-1.72,4.05,4.05,0,0,0-.52-1.7,3.31,3.31,0,0,1,1,1.61,4.77,4.77,0,0,1,.22,1.93,2.26,2.26,0,0,1-.35,1,1.28,1.28,0,0,1-1.16.59,1.41,1.41,0,0,1-1.12-.64,3.12,3.12,0,0,1-.44-1,7.29,7.29,0,0,1-.17-1.95,7,7,0,0,1,.29-1.92,5.61,5.61,0,0,1,.88-1.72A3,3,0,0,1,410.36,361Z" style="fill:#263238"></path><path d="M426.12,347.92s-5.87-1.12-18.52-.61c-4.22.17-41.87,4.37-63.57-2.21,1.08-7.93,4.05-17.23,8-26,4.56-.15,16.95-1.1,20.5-1.35,1.44-.11,19.52-3.38,21.62-3.38,8.17,0,18.28,2.81,18.28,2.81s8.62-4,14.29-3.67a4.59,4.59,0,0,1,2.17.68,38.83,38.83,0,0,1,4.37,10.63C435.59,337.27,426.12,347.92,426.12,347.92Z" style="fill:#9C27B0"></path><path d="M399.67,341.4A64.6,64.6,0,0,1,411,342.78c1.86.42,3.69.94,5.52,1.52.91.28,1.83.53,2.75.77a10.38,10.38,0,0,0,2.92.44c.09,0,.1.15,0,.16a17.09,17.09,0,0,1-2.77.15,17.7,17.7,0,0,1-2.68-.4c-1.89-.41-3.76-.93-5.64-1.36-3.8-.87-7.6-1.74-11.44-2.28C399.48,341.76,399.49,341.4,399.67,341.4Z" style="fill:#263238"></path><path d="M390.72,346.1a67.08,67.08,0,0,1,9.26-1.23,45.44,45.44,0,0,1,4.67,0c.74,0,1.49.08,2.23.14s1.64.26,2.46.31c.08,0,.1.16,0,.16-.77,0-1.55.11-2.32.15l-2.33.1c-1.55.07-3.1.16-4.66.21-3.11.11-6.2.25-9.3.49C390.57,346.42,390.56,346.13,390.72,346.1Z" style="fill:#263238"></path><polygon points="432.85 378.44 336.41 378.44 337.91 369.99 431.34 369.99 432.85 378.44" style="fill:#263238"></polygon><path d="M421.05,380.28H400.77V368.54h20.28Zm-18.28-2h16.28v-7.74H402.77Z" style="fill:#9C27B0"></path><path d="M415.49,295.25c-1.32-1.61-6.06-7.87-8.51-11.36,0-.05,0-.12.09-.07,1.54,1.86,3.05,3.73,4.55,5.62v0c-.59-1.11-1.11-2.27-1.6-3.43,0-.05.06-.09.09,0,.69,1.07,1.35,2.16,1.94,3.29l.86,1.63c.08.16.15.32.22.49.6.76,1.28,2,2.53,3.79C415.71,295.22,415.56,295.34,415.49,295.25Z" style="fill:#263238"></path><path d="M379.65,278.76c.47,1.72,9.11,12.62,17,12,2.56-.22,2-14.27,2-14.27l.19-1,2.73-14.65-17.47-10.34-2.52-1.36s-.48,4.06-1,9.12c0,.23-.05.46-.08.72s-.08.55-.1.82c-.09.75-.18,1.52-.26,2.29-.06.59-.12,1.16-.16,1.78s-.09,1.22-.15,1.83A98,98,0,0,0,379.65,278.76Z" style="fill:#d3766a"></path><path d="M380.54,258.18a29.89,29.89,0,0,0,18.29,17.23l2.73-14.65-17.47-10.34-2.52-1.36S381.09,253.12,380.54,258.18Z" style="fill:#263238"></path><path d="M379.4,248.4c-6.18-1.25-21.95,3.43-27.11,11.74s-4.48,21.61-1.73,22.86,14.47.05,22.44-4.54S382.45,249,379.4,248.4Z" style="fill:#263238"></path><path d="M379.42,248.44c.2-.05.22-.39,0-.39-5.39,0-11.14,1.88-16.25,3.45-4.12,1.26-8.35,2.76-11.66,5.64a14.47,14.47,0,0,0-5.07,11c-.09,4.76.69,10.49,3.1,14.66.07.13.31.09.26-.07-2.64-8.95-5-19.88,3.81-26.16C361.08,251.25,370.77,250.48,379.42,248.44Z" style="fill:#263238"></path><path d="M374.58,242.84c-1.75-2.14-5,.62-3.29,2.76S376.33,245,374.58,242.84Z" style="fill:#9C27B0"></path><path d="M376.31,246.45c-1.75-2.15-5,.61-3.29,2.76S378.06,248.59,376.31,246.45Z" style="fill:#9C27B0"></path><path d="M378.66,249.73c-1.75-2.14-5.05.62-3.3,2.76S380.41,251.88,378.66,249.73Z" style="fill:#9C27B0"></path><path d="M381.34,252.6c-1.75-2.15-5,.61-3.29,2.76S383.09,254.74,381.34,252.6Z" style="fill:#9C27B0"></path><path d="M384.54,255c-1.74-2.14-5,.62-3.29,2.76S386.3,257.16,384.54,255Z" style="fill:#9C27B0"></path><path d="M388,256.75c-1.75-2.15-5,.61-3.29,2.76S389.75,258.89,388,256.75Z" style="fill:#9C27B0"></path><path d="M418.59,236.57c4.22,25.81-10.76,31.25-16.33,32.16-5.06.82-22.37,3-29.23-22.27s3.8-35.37,15.26-37.85S414.37,210.75,418.59,236.57Z" style="fill:#d3766a"></path><path d="M408.68,230.75a14.76,14.76,0,0,1-1.76,0,2.8,2.8,0,0,1-1.78-.35.92.92,0,0,1-.22-1.09,2.25,2.25,0,0,1,2.06-1,3.31,3.31,0,0,1,2.26.73A1,1,0,0,1,408.68,230.75Z" style="fill:#263238"></path><path d="M392.41,236.72a17,17,0,0,0,1.74.16,2.87,2.87,0,0,0,1.81-.18.93.93,0,0,0,.33-1.06,2.24,2.24,0,0,0-2-1.14,3.26,3.26,0,0,0-2.32.5A1,1,0,0,0,392.41,236.72Z" style="fill:#263238"></path><path d="M396.44,239.81c0-.06-.12.11-.1.18.44,1.67.66,3.66-.74,4.57-.05,0,0,.11,0,.09C397.44,244,397.12,241.32,396.44,239.81Z" style="fill:#263238"></path><path d="M394.53,238.39c-2.76.41-1.73,5.89.82,5.51S396.85,238,394.53,238.39Z" style="fill:#263238"></path><path d="M393.51,238.88c-.42.4-.79,1-1.36,1.2s-1.26-.29-1.8-.76c-.06,0-.1,0-.09.08.18,1,.79,2.06,1.95,2s1.62-1.11,1.68-2.22C393.9,239,393.68,238.72,393.51,238.88Z" style="fill:#263238"></path><path d="M406.65,237.62c0-.06.15.06.16.13.25,1.71.82,3.63,2.46,3.92.05,0,.06.1,0,.1C407.35,241.84,406.61,239.28,406.65,237.62Z" style="fill:#263238"></path><path d="M407.86,235.57c2.7-.69,3.89,4.76,1.39,5.4S405.59,236.16,407.86,235.57Z" style="fill:#263238"></path><path d="M409.07,235.68c.49.2,1,.63,1.56.55s.91-.78,1.17-1.42c0-.07.08,0,.1,0,.26,1,.15,2.19-.81,2.61s-1.74-.36-2.21-1.35C408.79,235.93,408.87,235.61,409.07,235.68Z" style="fill:#263238"></path><path d="M400.05,253.15c.46.34.95.84,1.58.8a4.67,4.67,0,0,0,1.78-.68.06.06,0,0,1,.09.07,2.36,2.36,0,0,1-2.05,1.24,1.84,1.84,0,0,1-1.55-1.33C399.85,253.15,400,253.1,400.05,253.15Z" style="fill:#263238"></path><path d="M405.92,245.61s.85,2.47,1.09,3.66c0,.11-.25.22-.66.33,0,0,0,0,0,0a5.79,5.79,0,0,1-5.94-1c-.1-.1,0-.25.15-.2a8.75,8.75,0,0,0,5.48.46c0-.35-1.6-4.17-1.42-4.22a10.54,10.54,0,0,1,2.84.07c-1.63-5.18-4.07-10.06-5.62-15.24a.17.17,0,0,1,.3-.14c2.92,4.93,4.93,10.85,6.75,16.16C409.08,246.13,406.44,245.72,405.92,245.61Z" style="fill:#263238"></path><path d="M405.43,249.12a6.26,6.26,0,0,1-2,2.47,2.76,2.76,0,0,1-1.63.5c-1.28,0-1.58-1.12-1.58-2.11a6.88,6.88,0,0,1,.18-1.57A8.14,8.14,0,0,0,405.43,249.12Z" style="fill:#263238"></path><path d="M403.46,251.59a2.76,2.76,0,0,1-1.63.5c-1.28,0-1.58-1.12-1.58-2.11A2.89,2.89,0,0,1,403.46,251.59Z" style="fill:#ff9cbd"></path><path d="M373.25,246.58C379.46,245.76,378,236,378,236s7-1.63,5.87-13.07c0,0,4.36,6.38,14.1,6.43,2.06,0-5.45-4.27-5.45-4.27s9.16,6.21,23.83,1.29c1-.35-3.48-15.92-16.06-19.67s-22.8.83-29.06,9.31a14.48,14.48,0,0,0-6,12.25C365.43,236.58,370.83,246.89,373.25,246.58Z" style="fill:#263238"></path><path d="M377.45,247.77s-6.3-7.71-9.85-5.4,1.64,13.78,6.1,15.07a4.43,4.43,0,0,0,5.73-2.82Z" style="fill:#d3766a"></path><path d="M369.17,245.62a.06.06,0,0,0,0,.12c3.14,1,5,3.7,6.3,6.54-1-1.06-2.27-1.58-3.7-.39-.07.06,0,.18.1.15a2.72,2.72,0,0,1,3,.72,13.7,13.7,0,0,1,1.62,2.31c.16.26.64.08.51-.22l0-.07C376.79,250.89,373.36,245.7,369.17,245.62Z" style="fill:#263238"></path><path d="M335.86,342.13c-.05-2.25,35.33-40.39,41.73-53.09s3.09-15.39-13.53-7.13-64.78,38.37-70.75,53.2,24.8,55.26,24.8,55.26l23-39.44S335.9,344,335.86,342.13Z" style="fill:#d3766a"></path><path d="M348.94,325.66c1.47-1.85,2.86-3.75,4.36-5.57s3.08-3.66,4.65-5.48q4.76-5.5,9.67-10.83c.05,0,.15,0,.1.08q-2.54,3.22-5.13,6.41l0,0c1.1-.92,2.26-1.78,3.44-2.61.05,0,.11.05.06.09-1,1-2.08,2-3.18,2.95L361.33,312c-.15.13-.32.25-.48.37-.7.84-1.39,1.69-2.09,2.54-1.54,1.83-3.08,3.67-4.66,5.47s-3.33,3.59-5,5.4C349,325.9,348.86,325.76,348.94,325.66Z" style="fill:#263238"></path><path d="M348.12,405.33c4.27-3.61-2.43-6.57-2.43-6.57s10.67,1.93,13.62-3.49c2.84-5.24-5.38-8.53-6-8.77.57.1,10.42,1.62,12.83-4.14,2.49-6-6.32-7.87-6.89-8,.56-.07,8-1.2,8.82-6,1.43-8.23-20.09-6.83-25.24-11.21,0,0,.93-10.76,1.06-11.07,0,0-1.91,4.36-5.53,5.83-4.49,1.81-8.58,3-10.22,5.45a6.13,6.13,0,0,0,.1,7.31s-5.93-.05-8,4.43c-1,2.3,1.71,6,1.71,6s-4.75.16-6.31,4.25c-1.26,3.26,1.69,6.48,1.69,6.48s-4.48,2.27-4.69,6C312.27,399.44,339,413.06,348.12,405.33Z" style="fill:#d3766a"></path><path d="M317.78,386.44a.08.08,0,1,0-.09.12c7.69,6.62,18.17,11.54,28.34,12.4.34,0,.53-.5.16-.6C335.88,395.47,327,392.08,317.78,386.44Z" style="fill:#263238"></path><path d="M321.85,375.11c-.1-.06-.2.11-.11.19,8,6.78,19.92,12,31.77,11.6.4,0,.75-.43.28-.45C345.9,386.11,330.08,380.24,321.85,375.11Z" style="fill:#263238"></path><path d="M359.44,374.19c-11.1-.2-21.1-3.92-30.87-9.19-.13-.07-.21.11-.12.2,4.11,3.86,10.67,6.58,15.94,8.28a29.73,29.73,0,0,0,15.06,1.1C359.65,374.54,359.68,374.2,359.44,374.19Z" style="fill:#263238"></path><path d="M317.09,385.86c-1.88-1.9-3.3-4.4-2.46-7.14a5.47,5.47,0,0,1,2.34-3c1.37-.85,3.38-.82,4.34-.88-1.71-2.27-2.57-5.36-1-7.93a5.34,5.34,0,0,1,3.2-2.19,17.44,17.44,0,0,1,4.6-.31,6.24,6.24,0,0,1-1.92-5.28,6.79,6.79,0,0,1,3.64-5c2.18-1.27,4.69-1.75,7.07-2.48a15.86,15.86,0,0,0,3.59-1.41,9.26,9.26,0,0,0,3.14-3.93c.08-.24.12,0,.06.17a9.59,9.59,0,0,1-2,3.22,11.41,11.41,0,0,1-2.32,1.9c-2.07,1.29-4.47,1.81-6.68,2.77a9.79,9.79,0,0,0-4.82,4,5.81,5.81,0,0,0,.47,6.08c.07.08,0,.23-.14.23a17.14,17.14,0,0,0-4,.91,5.71,5.71,0,0,0-2.66,2.09,7.43,7.43,0,0,0,.44,7.41,12.69,12.69,0,0,0-4.17,1.57,5.4,5.4,0,0,0-1.78,2.47,6.43,6.43,0,0,0,1.4,6.59s0,.05,0,.08h0s0,0,0,0a.15.15,0,0,1,0,.09h0s-1.43.78-1.5.8,0-.05,0-.09A12.24,12.24,0,0,1,317.09,385.86Z" style="fill:#263238"></path><path d="M343.92,346.1c-.06,1.85-.17,3.71-.27,5.56s-.2,3.71-.33,5.56l-.14-.39a12.74,12.74,0,0,0,4.44,1.9,41.73,41.73,0,0,0,5,.74,48.13,48.13,0,0,1,10.17,2.09,12.22,12.22,0,0,1,4.66,2.74,5,5,0,0,1,1.37,2.6,5.28,5.28,0,0,1-.34,2.89,7.43,7.43,0,0,1-4,3.68,17.68,17.68,0,0,1-5.09,1.36l0-.91a17.65,17.65,0,0,1,2.62.92,12.13,12.13,0,0,1,2.38,1.41,6.52,6.52,0,0,1,1.83,2.08,4,4,0,0,1,.35,2.68,4,4,0,0,0-.61-2.53,6,6,0,0,0-1.87-1.8,12,12,0,0,0-2.37-1.14,17.57,17.57,0,0,0-2.52-.72l-2.38-.45,2.42-.46a17.81,17.81,0,0,0,4.7-1.51,6.4,6.4,0,0,0,3.29-3.12,3.88,3.88,0,0,0,.19-2.13,3.61,3.61,0,0,0-1-1.84,10.77,10.77,0,0,0-4.12-2.34,52.44,52.44,0,0,0-9.83-2.15c-3.33-.45-7-1-9.89-3.31l-.18-.14,0-.24q.35-2.76.73-5.52C343.38,349.77,343.62,347.93,343.92,346.1Z" style="fill:#263238"></path><path d="M350.91,280.63c5.33,1.08,18.56,12.31,20.17,22.7s-7.76,24.9-10.47,25.81-13.89-9.75-17.25-17.22c-2.24-5,.2-10.45,1.78-15.94C347.46,287.87,350.08,280.46,350.91,280.63Z" style="fill:#263238"></path><path d="M340.23,310.41c-.85-10.54,5.79-20.43,10-29.58,0-.09.21,0,.18.07-2.62,8.88-8.63,16.6-9.46,26-.49,5.59,1.07,11.23,5.44,15,3.79,3.26,8.72,5,13.24,7,.3.13.06.56-.23.44C350.37,325.65,341.11,321.27,340.23,310.41Z" style="fill:#263238"></path><path d="M352,281.68c-.26-.15-.05-.57.22-.42,7.38,4.17,16.21,10.11,19.74,18.14,3.83,8.7-1.24,17.17-5.72,24.46-.06.09-.21,0-.15-.08,4.44-7.41,9.23-16.65,4.78-25.18C367,291.26,359,285.73,352,281.68Z" style="fill:#263238"></path><path d="M359.79,328.48c7.95,3.77,18.13,9.9,18.15,18s-6.69,21.42-7.56,21.59-16.48-5.51-21.23-14.16S358.76,328,359.79,328.48Z" style="fill:#263238"></path><path d="M369.86,368.79c4.79-6.22,10.2-14.5,8.86-22.78-1.29-8-11.09-13.68-17.71-16.88a.07.07,0,0,1,.06-.13c7.05,2.7,16.57,8.35,18.21,16.4s-3.64,18.17-9.22,23.59C369.94,369.1,369.76,368.92,369.86,368.79Z" style="fill:#263238"></path><path d="M370.33,367.24c3.57,1.9,8.76,8.11,9.88,15.35,1.93,12.39,6.61,10,20.08,13.43,11.39,2.89,13.68,15.69,7.53,21.94,0,0,3.61-7.84-4-11.78-9.14-4.71-30.26,4.73-40.61-8.36C349.78,380.87,370.33,367.24,370.33,367.24Z" style="fill:#263238"></path><path d="M375.12,373c-.15-.17.14-.43.3-.27a18.09,18.09,0,0,1,3.65,5.42c1.13,2.63,1.16,5.46,2.1,8.14,2.38,6.8,10.57,6.65,16.5,7.14,7.95.64,14.31,5.57,14.71,14,0,.12-.18.13-.19,0a14.17,14.17,0,0,0-8.32-12.11c-4.63-2-9.89-1-14.7-2.24-3.3-.83-6.57-2.27-8.07-5.51a27.63,27.63,0,0,1-1.42-5.68A19.84,19.84,0,0,0,375.12,373Z" style="fill:#263238"></path><path d="M368.22,368.72c.07-.06.18.06.11.12-4.55,4.41-9.38,8.82-10.74,15.32-1.47,7,2.07,14,7.53,18.32,6.11,4.81,12.74,2.61,19.64,1.34,5-.92,10.07-1.46,14.95.3.14.05.06.3-.09.26-7.86-1.91-15.09.36-22.83,1.53-6.33.95-11.27-1.29-15.29-6.24C352.65,388.76,358.27,376.46,368.22,368.72Z" style="fill:#263238"></path></g><g id="freepik--character-2--inject-47"><polygon points="310.56 460.41 238.17 460.41 232.62 344.85 295.07 344.85 310.56 460.41" style="fill:#455a64"></polygon><polygon points="275.51 344.85 268.13 403.4 268.12 403.48 267.96 404.7 267.66 407.1 267.32 409.77 267.21 410.71 267.11 411.48 260.93 460.41 238.17 460.41 232.62 344.85 275.51 344.85" style="fill:#263238"></polygon><path d="M296.34,460.41h-2q-2-15.69-4-31.4c-2.49-20.16-4.9-40.35-7-60.55-.21-1.84-.39-3.69-.58-5.52,0-.29.46-.35.51-.07.16,1.24.34,2.49.51,3.72C288.1,397.85,292.15,429.14,296.34,460.41Z" style="fill:#263238"></path><path d="M279.37,344.85c-.19.87-5.58,59.76-7.58,63a3.18,3.18,0,0,1-.87,1c-.65.38-14.34,6.63-16.5,7.52l0,0v.18l-2.24,43.82H183l11.81-71.09,8.42-44.53S279.38,344.81,279.37,344.85Z" style="fill:#455a64"></path><path d="M276.62,406a141,141,0,0,0-22.11,10.3.25.25,0,0,0,.2.46c7.45-3.2,15-6.26,22.31-9.87A.49.49,0,0,0,276.62,406Z" style="fill:#263238"></path><path d="M278.86,355c0-.26-.47-.32-.47,0,.06,8.85-.5,16.63-1.24,24.89-.35,3.84-3.44,25-10.09,23.5-1.12-.26-1.68-1.36-1.86-3-.21-2,.55-4.49.88-6.5.74-4.44,1.34-8.89,1.72-13.38a122.22,122.22,0,0,0-.27-25.08.22.22,0,0,0-.43,0c0,11.59-.3,23.16-2,34.63-.83,5.52-3.61,13.82,2.16,14.67s9.68-13.05,10.39-16.85C279.62,377.2,279.7,365.74,278.86,355Z" style="fill:#263238"></path><path d="M267.24,403.92a33.9,33.9,0,0,0-1.5,4.39,10,10,0,0,0-.62,3.62c0,.23.33.25.46.1a12.6,12.6,0,0,0,1.54-3.52c.51-1.36,1.05-2.71,1.51-4.08A.74.74,0,0,0,267.24,403.92Z" style="fill:#263238"></path><path d="M222.41,380c-2.49,26-6,51.89-8.93,77.83-.11.87-.2,1.76-.3,2.63h-1.34c3.35-26.83,6.25-53.71,10.11-80.47C222,379.68,222.42,379.68,222.41,380Z" style="fill:#263238"></path><path d="M207.46,379c4,.28,7.88.79,11.86.32a20.71,20.71,0,0,0,10.32-4.05c6.54-5.07,9.41-13.37,11.18-21.15a.14.14,0,0,1,.28,0c-.74,6.75-2.2,13.73-6.55,19.16a21.07,21.07,0,0,1-7,5.73,20.47,20.47,0,0,1-9.19,1.9,44.38,44.38,0,0,1-11-1.49A.23.23,0,0,1,207.46,379Z" style="fill:#263238"></path><path d="M273,180.22c15.57,13.35,11.23,32.82,17.74,43.38,4,6.46,16.93,13.28,19.5,20.72,4.24,12.23-6.13,16.62-3.81,23.26,3.28,9.42,15.89,8.68,18.16,24.09s-14.68,31.78-54.9,36.22S207.42,317.6,206,304.54s11.94-17.42,12.85-27.18c.59-6.24-7.68-10.58-8.09-22.05s10.76-15.21,12.36-25-3.55-33.43,10.77-45.52S265.35,173.63,273,180.22Z" style="fill:#263238"></path><path d="M271.23,180.57a33.13,33.13,0,0,1,10.34,11.93,72.6,72.6,0,0,1,5.75,15.81,44.09,44.09,0,0,0,3.12,9.46,24.34,24.34,0,0,0,5.4,6.67c4.35,3.93,9.55,6.92,13.45,11.34,3.7,4.19,6.58,9.79,5.11,15.5-.81,3.11-2.85,5.64-4.13,8.54-1.2,2.74-1.69,6.15.67,8.43,2,1.95,4.93,2.84,7.21,4.44a25.57,25.57,0,0,1,5.87,5.69,19.7,19.7,0,0,1,3.7,15.47c-2.36,12.51-14.1,19.63-24.94,24.11q-2.26.93-4.55,1.83c-.23.1-.43-.24-.19-.35,10.87-4.87,23.49-10.58,27.67-22.74a18.36,18.36,0,0,0-1.87-16.14,23.15,23.15,0,0,0-5.75-6.05c-2.19-1.61-4.71-2.61-6.94-4.14a7.39,7.39,0,0,1-3.42-6.61c.14-2.94,1.58-5.5,3-8,1.5-2.64,2.78-5.31,2.56-8.43a16.27,16.27,0,0,0-3.21-8c-3.39-4.79-8.4-7.94-12.9-11.57s-8.13-7.86-9.78-13.53c-.84-2.87-1.35-5.82-2.08-8.72a75.71,75.71,0,0,0-2.39-7.95,37.84,37.84,0,0,0-8.51-14,21.25,21.25,0,0,0-3.32-2.73C271,180.69,271.1,180.48,271.23,180.57Z" style="fill:#263238"></path><path d="M204.19,295A15.06,15.06,0,0,1,207,289.1c1.4-1.78,3.09-3.27,4.64-4.91a11.42,11.42,0,0,0,3.29-5.43c.51-2.57-.57-5-1.77-7.25a53.17,53.17,0,0,1-3.6-7A25.36,25.36,0,0,1,208,257a25.78,25.78,0,0,1,4-15c1.37-2.24,2.92-4.38,4.31-6.61a32.67,32.67,0,0,0,3.56-7.82c1.81-6.05,2.2-12.44,3.68-18.58a96.05,96.05,0,0,1,6.54-18.24c.06-.15.28,0,.21.13a83.51,83.51,0,0,0-5.71,16.48c-1.28,5.38-1.77,10.87-2.72,16.3a41.27,41.27,0,0,1-2,7.84,42.93,42.93,0,0,1-3.49,6.73c-2.72,4.43-5.53,8.8-6.28,14.05a24.64,24.64,0,0,0,2.59,15.06c2.12,4,5.08,8.41,3.23,13.09-1.56,4-5.34,6.34-7.85,9.62a15.84,15.84,0,0,0-2.72,12.71c2.16,11.27,13.45,16.85,24,17.41a.26.26,0,0,1,0,.51c-9.19-.11-19.18-4.14-23.49-12.74A19.51,19.51,0,0,1,204.19,295Z" style="fill:#263238"></path><path d="M278.23,260.38c27.11-5.24,60.69-24,63.25-33,3.75-13.15,9.71-28.69,12-57.84.42-5.34-38.06-16.16-38.63-10.46-1.26,12.68-3.37,45.24-5.25,51.51-1.32,4.42-25.38,21.18-41.43,34.26C250.1,259.57,263.27,263.26,278.23,260.38Z" style="fill:#ad6359"></path><path d="M359.75,140c.39,8.89-5.63,31.66-8.87,35.53s-30.7-6.91-32.54-11.76-5.15-33.8.21-41.13S359.35,130.76,359.75,140Z" style="fill:#ad6359"></path><path d="M312.56,135.54c2.62,3.92,5.75-1.4,5.75-1.4s-2.66,8.75,1.6,11.75c4.11,2.89,7.67-3.68,7.93-4.14-.14.46-2.37,8.57,2.22,11.15,4.77,2.67,7.21-4.53,7.36-5,0,.48.23,6.81,4.17,8,6.76,2,6.64-14.2,10.81-18.1,0,0,7.15,2.72,7.4,2.86,0,0,.46-11.82-5.1-17.15a4.92,4.92,0,0,0-6.14-.64s.61-5-2.94-7.1c-1.82-1.1-5.2.85-5.2.85s.33-4-2.95-5.71c-2.61-1.37-5.59.79-5.59.79s-1.47-4-4.59-4.52C321,106.07,307,127.13,312.56,135.54Z" style="fill:#ad6359"></path><path d="M331.35,112c0-.07,0-.15-.09-.09-6.3,5.8-11.44,14.1-13.15,22.55-.06.27.37.48.49.19A89.65,89.65,0,0,1,331.35,112Z" style="fill:#263238"></path><path d="M340.45,116.46c.06-.07-.07-.18-.15-.11-6.45,6-12,15.53-12.81,25.49,0,.35.29.68.35.29C328.89,135.55,335.35,122.86,340.45,116.46Z" style="fill:#263238"></path><path d="M337.61,148.62c1.15-9.53,5.25-17.72,10.67-25.53.07-.11-.08-.19-.17-.13-3.69,3.1-6.62,8.44-8.55,12.79a25.33,25.33,0,0,0-2.29,12.82C337.29,148.75,337.58,148.82,337.61,148.62Z" style="fill:#263238"></path><path d="M318.31,134.14a29,29,0,0,0-.59,5.24,9.79,9.79,0,0,0,1,4.93,3.21,3.21,0,0,0,1.77,1.44,4.54,4.54,0,0,0,2.34.1,5.61,5.61,0,0,0,3.48-3l1.79-3.42-.49,3.84a15.71,15.71,0,0,0,.13,5.12,5.62,5.62,0,0,0,2.43,3.93,3.22,3.22,0,0,0,4.05-.38,9.63,9.63,0,0,0,2.44-4.25l1.37-4.37.14,4.56a15,15,0,0,0,.59,3.75,6.22,6.22,0,0,0,1.81,3,2.91,2.91,0,0,0,3,.43,6.38,6.38,0,0,0,2.39-2.69A50.66,50.66,0,0,0,349,145c.44-1.27.88-2.54,1.38-3.79a9.57,9.57,0,0,1,2.06-3.46,10.48,10.48,0,0,0-1.71,3.58c-.4,1.27-.74,2.57-1.08,3.86a42.87,42.87,0,0,1-2.61,7.7,7.48,7.48,0,0,1-2.76,3.32,4.14,4.14,0,0,1-4.51-.46,7.51,7.51,0,0,1-2.35-3.7,16.35,16.35,0,0,1-.72-4.17l1.5.19a11.2,11.2,0,0,1-2.83,5,4.64,4.64,0,0,1-2.89,1.31,5.28,5.28,0,0,1-3-.78,7.17,7.17,0,0,1-3.08-5,17.22,17.22,0,0,1-.05-5.64l1.3.42a6.74,6.74,0,0,1-4.5,3.47,5.62,5.62,0,0,1-2.88-.28,4.06,4.06,0,0,1-2.18-1.93,9.86,9.86,0,0,1-.75-5.38A22.94,22.94,0,0,1,318.31,134.14Z" style="fill:#263238"></path><path d="M317.65,165.7s-24.41-38-4.29-39.93c4.86-.48,24.89,6,23.77,10.06-1.45,5.22-10.27,4.28-15.71,2.81,0,0,7.19,10.8,1.17,18A25.91,25.91,0,0,0,317.65,165.7Z" style="fill:#ad6359"></path><path d="M312,125.84a19.81,19.81,0,0,1,5.75.21,41.83,41.83,0,0,1,5.64,1.28,66.11,66.11,0,0,1,10.83,4.1,10.9,10.9,0,0,1,2.54,1.71,4.1,4.1,0,0,1,1,1.44,2.82,2.82,0,0,1,.22.94,2.94,2.94,0,0,1-.12,1,4.85,4.85,0,0,1-2,2.69,9,9,0,0,1-2.93,1.18,17.33,17.33,0,0,1-6,.12,39.08,39.08,0,0,1-5.71-1.18l.72-1a23.27,23.27,0,0,1,1.95,4,20.8,20.8,0,0,1,1.16,4.24,15,15,0,0,1,.05,4.38,11.33,11.33,0,0,1-1.39,4.1,12.75,12.75,0,0,0,.93-4.14,15.54,15.54,0,0,0-.42-4.19,20,20,0,0,0-1.34-4,22.25,22.25,0,0,0-2-3.64l-1-1.4,1.71.38a44.17,44.17,0,0,0,5.53,1,17.09,17.09,0,0,0,5.45-.18c1.68-.38,3.37-1.3,3.75-2.73.44-1.22-1.26-2.44-2.83-3.3a53.25,53.25,0,0,0-5.12-2.39c-1.75-.74-3.51-1.46-5.3-2.09C319.49,127.1,315.83,125.87,312,125.84Z" style="fill:#263238"></path><path d="M355.86,178l-48.53-17.21s-.45,46.37-1.07,49.6c-1.44,7.47-31.45,25.1-41.41,35-10.21,10.16-9.13,20.87,14.82,16,25.94-5.24,62.18-23.28,65.2-30.74C351.16,215.12,355.86,178,355.86,178Z" style="fill:#9C27B0"></path><path d="M315.74,163.77a2.59,2.59,0,0,1-.68.09,2.66,2.66,0,0,1-2.15-1.09Zm-.68,32.65a2.67,2.67,0,1,0,2.67,2.67A2.68,2.68,0,0,0,315.06,196.42Zm23.55,0a2.67,2.67,0,1,0,2.67,2.67A2.68,2.68,0,0,0,338.61,196.42Zm-11.77-18.83a2.67,2.67,0,1,0,2.66,2.67A2.66,2.66,0,0,0,326.84,177.59Zm23.54,0a2.67,2.67,0,1,0,2.67,2.67A2.67,2.67,0,0,0,350.38,177.59Zm-58.86,56.73a2.67,2.67,0,1,0,2.66,2.67A2.66,2.66,0,0,0,291.52,234.32Zm23.54,0a2.67,2.67,0,1,0,2.67,2.67A2.67,2.67,0,0,0,315.06,234.32Zm23.55,0a2.67,2.67,0,0,0-2.67,2.67,2.57,2.57,0,0,0,.39,1.37,52.67,52.67,0,0,0,4.33-3.08A2.66,2.66,0,0,0,338.61,234.32Zm-35.32-18.84a3,3,0,0,0-.52.05c-.62.64-1.32,1.3-2.07,2a2.67,2.67,0,1,0,2.59-2Zm23.55,0a2.67,2.67,0,1,0,2.66,2.67A2.67,2.67,0,0,0,326.84,215.48Zm20.87,2.67a2.64,2.64,0,0,0,.57,1.65c.34-1.32.68-2.69,1-4.08A2.68,2.68,0,0,0,347.71,218.15ZM258.8,255.47a5.12,5.12,0,0,0,0,1.29,2.39,2.39,0,0,0,.1-.71A2.72,2.72,0,0,0,258.8,255.47Zm20.94-2.09a2.67,2.67,0,1,0,2.67,2.67A2.68,2.68,0,0,0,279.74,253.38Zm23.55,0a2.67,2.67,0,0,0-2.57,2c1.35-.49,2.7-1,4-1.51A2.62,2.62,0,0,0,303.29,253.38Z" style="fill:#fff"></path><path d="M330.25,181.91c-3.6-1.22-18-6.15-21.42-7.63-.06,0,0-.11,0-.1,3.62.82,18,5.31,21.57,6.52,7.2,2.4,14.49,4.69,21.34,7.81a.12.12,0,0,1-.07.22C344.38,186.9,337.34,184.29,330.25,181.91Z" style="fill:#263238"></path><path d="M283.57,260.56q-2,.48-3.9.87c-22.3,4.5-24.77-4.48-16.76-13.93Z" style="opacity:0.1"></path><path d="M204.54,345.5h90.64l-5.51-29.7s7.51-9.78,5.79-19.78C293,282,277.15,262.25,270,254c-8.88-10.16-25.15-11.91-34.77,2C211.67,290,204.54,345.5,204.54,345.5Z" style="fill:#9C27B0"></path><path d="M247.09,274.88a2.67,2.67,0,1,1-2.67-2.67A2.66,2.66,0,0,1,247.09,274.88ZM268,272.21a2.67,2.67,0,1,0,2.67,2.67A2.67,2.67,0,0,0,268,272.21Zm-32.66-16.35-.1.14c-.59.85-1.17,1.71-1.73,2.59a2.69,2.69,0,0,0,1.84-2.54A1.21,1.21,0,0,0,235.31,255.86Zm20.88-2.48a2.67,2.67,0,1,0,2.67,2.67A2.67,2.67,0,0,0,256.19,253.38Zm-35.32,56.73a2.67,2.67,0,1,0,2.67,2.67A2.67,2.67,0,0,0,220.87,310.11Zm23.55,0a2.67,2.67,0,1,0,2.67,2.67A2.68,2.68,0,0,0,244.42,310.11Zm23.55,0a2.67,2.67,0,1,0,2.67,2.67A2.67,2.67,0,0,0,268,310.11Zm23.55,0a2.67,2.67,0,0,0-1.34,5,36.09,36.09,0,0,0,2.66-4.63A2.68,2.68,0,0,0,291.52,310.11Zm-58.87-18.83a2.67,2.67,0,1,0,2.67,2.67A2.66,2.66,0,0,0,232.65,291.28Zm23.54,0a2.67,2.67,0,1,0,2.67,2.67A2.66,2.66,0,0,0,256.19,291.28Zm23.55,0a2.67,2.67,0,1,0,2.67,2.67A2.67,2.67,0,0,0,279.74,291.28ZM209.1,329.17a2.66,2.66,0,0,0-1.85.74h0c-.22,1-.41,2-.6,3h0a2.67,2.67,0,1,0,2.45-3.74Zm23.55,0a2.67,2.67,0,1,0,2.67,2.67A2.67,2.67,0,0,0,232.65,329.17Zm23.54,0a2.67,2.67,0,1,0,2.67,2.67A2.67,2.67,0,0,0,256.19,329.17Zm23.55,0a2.67,2.67,0,1,0,2.67,2.67A2.68,2.68,0,0,0,279.74,329.17Z" style="fill:#fff"></path><path d="M258.23,313.13a101.25,101.25,0,0,1,14,1.06c2.3.37,4.57.83,6.84,1.34,1.13.25,2.26.47,3.4.68a16.38,16.38,0,0,0,3.63.36.08.08,0,1,1,0,.15,28.52,28.52,0,0,1-3.45.21,26.44,26.44,0,0,1-3.33-.33c-2.34-.35-4.66-.8-7-1.17-4.71-.75-9.42-1.5-14.18-1.93C258,313.48,258,313.13,258.23,313.13Z" style="fill:#263238"></path><path d="M247,317.89a112.05,112.05,0,0,1,11.55-1.42c1.94-.12,3.88-.15,5.82-.12.93,0,1.85,0,2.78.08s2,.21,3.05.24c.11,0,.12.15,0,.15-1,0-1.93.15-2.89.2l-2.9.16c-1.94.1-3.87.23-5.81.32-3.87.17-7.73.38-11.6.69C246.77,318.2,246.77,317.92,247,317.89Z" style="fill:#263238"></path><path d="M246.6,249.71c.63,1.6,6.78,12.38,14.48,12.38,4.84,0,3.66-16.58,3.66-16.58l.08-1L265.94,230l-18-8.2-2.58-1.06s0,4-.06,8.93v.71c0,.28,0,.55,0,.81,0,.74,0,1.49,0,2.25,0,.57,0,1.13,0,1.73s0,1.19,0,1.79A92.33,92.33,0,0,0,246.6,249.71Z" style="fill:#ad6359"></path><path d="M245.32,229.68a29.1,29.1,0,0,0,19.5,14.79L265.94,230l-18-8.2-2.58-1.06S245.33,224.73,245.32,229.68Z" style="fill:#263238"></path><path d="M284,208.48c2.37,25.35-12.55,29.63-18,30.13-5,.46-21.92,1.39-26.9-23.59s6.07-34.09,17.37-35.73S281.66,183.12,284,208.48Z" style="fill:#ad6359"></path><path d="M275.82,202.83a16.44,16.44,0,0,1-1.73-.3,2.81,2.81,0,0,1-1.71-.64.92.92,0,0,1,0-1.11,2.25,2.25,0,0,1,2.19-.61,3.34,3.34,0,0,1,2.11,1.09A1,1,0,0,1,275.82,202.83Z" style="fill:#263238"></path><path d="M258.75,206.09a14.64,14.64,0,0,0,1.7.44,2.85,2.85,0,0,0,1.82.12.9.9,0,0,0,.49-1A2.24,2.24,0,0,0,261,204.2a3.29,3.29,0,0,0-2.37.13A1,1,0,0,0,258.75,206.09Z" style="fill:#263238"></path><path d="M262.24,209.8c0-.07-.13.09-.13.16.17,1.73.06,3.73-1.47,4.4-.05,0,0,.11,0,.1C262.55,214.07,262.67,211.41,262.24,209.8Z" style="fill:#263238"></path><path d="M260.58,208.09c-2.79-.05-2.67,5.55-.08,5.59S262.93,208.12,260.58,208.09Z" style="fill:#263238"></path><path d="M259.49,208.41c-.48.32-.95.89-1.54,1s-1.2-.49-1.66-1c-.05-.06-.1,0-.1.06,0,1.08.45,2.17,1.6,2.3s1.79-.84,2-1.92C259.87,208.57,259.69,208.27,259.49,208.41Z" style="fill:#263238"></path><path d="M272.7,209.29c0-.06.14.08.14.16,0,1.73.22,3.72,1.8,4.28.05,0,.05.1,0,.09C272.71,213.58,272.39,210.93,272.7,209.29Z" style="fill:#263238"></path><path d="M274.22,207.46c2.79-.25,3.09,5.34.51,5.57S271.89,207.67,274.22,207.46Z" style="fill:#263238"></path><path d="M275.41,207.77c.46.27.92.79,1.45.79s1-.62,1.4-1.22c0-.06.08,0,.09.06.08,1.06-.21,2.2-1.23,2.45s-1.66-.64-2-1.69C275.09,208,275.23,207.66,275.41,207.77Z" style="fill:#263238"></path><path d="M263.65,223.59c.4.42.81,1,1.43,1a4.53,4.53,0,0,0,1.88-.39.06.06,0,0,1,.07.09,2.32,2.32,0,0,1-2.22.89,1.84,1.84,0,0,1-1.33-1.56A.1.1,0,0,1,263.65,223.59Z" style="fill:#263238"></path><path d="M270.68,217.08s.45,2.58.49,3.8c0,.12-.29.18-.7.22,0,0,0,0-.05,0a5.79,5.79,0,0,1-5.71-2c-.09-.11.06-.25.17-.17a8.84,8.84,0,0,0,5.36,1.34c.07-.34-.91-4.39-.72-4.41a10.31,10.31,0,0,1,2.79.54c-.77-5.4-2.39-10.62-3.08-16a.17.17,0,0,1,.32-.09c2.09,5.36,3.11,11.55,4.05,17.1C273.72,218.11,271.18,217.28,270.68,217.08Z" style="fill:#263238"></path><path d="M269.63,220.47a6.35,6.35,0,0,1-2.35,2.13,2.8,2.8,0,0,1-1.7.23c-1.26-.23-1.38-1.36-1.22-2.34a6.67,6.67,0,0,1,.44-1.53A8.11,8.11,0,0,0,269.63,220.47Z" style="fill:#263238"></path><path d="M267.28,222.6a2.8,2.8,0,0,1-1.7.23c-1.26-.23-1.38-1.36-1.22-2.34A2.9,2.9,0,0,1,267.28,222.6Z" style="fill:#ff9cbd"></path><path d="M282.53,199.51c-3,1-13.64-5.65-17.91-15.17a23.93,23.93,0,0,1-7.52,14.41c-6.94,6.43-13.51,6.9-13.51,6.9s-2.07,11.48-4,11.73-13.82-39,19.55-39.45c0,0,9.77-1,15.87,4.72S282.53,199.51,282.53,199.51Z" style="fill:#263238"></path><path d="M243.32,214.1s-5.61-7.92-9.21-5.91.66,13.5,4.91,15.05a4.3,4.3,0,0,0,5.75-2.36Z" style="fill:#ad6359"></path><path d="M235.41,211.45a.06.06,0,0,0,0,.12c3,1.18,4.56,3.92,5.67,6.77-.89-1.09-2.09-1.69-3.56-.63-.08.06,0,.18.08.16a2.64,2.64,0,0,1,2.92.91,12.66,12.66,0,0,1,1.42,2.35c.14.26.61.11.51-.19a.19.19,0,0,1,0-.07C242.46,217.09,239.48,211.81,235.41,211.45Z" style="fill:#263238"></path><path d="M238.66,267.47c-7.31,9.57-40.25,47.9-42.35,51.27-1.42,2.27,6.53,12.95,6.36,14.49-.71,6.26-13.6,46.45-18.93,42.08-7-5.76-39.33-45.82-34.64-63.07s78.25-58.69,89.56-62S245.88,258,238.66,267.47Z" style="fill:#ad6359"></path><path d="M197.16,319.27c0-2.43,38.6-43.47,45.63-57.18s3.47-16.64-14.6-7.83-73.6,41-80.19,57.05,29.55,60.07,29.55,60.07l25.28-42.54S197.19,321.28,197.16,319.27Z" style="fill:#9C27B0"></path><path d="M200,274.88a2.67,2.67,0,1,1-2.67-2.67A2.67,2.67,0,0,1,200,274.88Zm20.87-2.67a2.67,2.67,0,1,0,2.67,2.67A2.67,2.67,0,0,0,220.87,272.21Zm11.78-18.83a2.67,2.67,0,1,0,2.67,2.67A2.67,2.67,0,0,0,232.65,253.38Zm-82.42,56.73a2.62,2.62,0,0,0-2.24,1.25s0,0,0,0a7.48,7.48,0,0,0-.4,1.24,0,0,0,0,0,0,0,.61.61,0,0,0,0,.14,2.67,2.67,0,1,0,2.66-2.67Zm23.55,0a2.67,2.67,0,1,0,2.67,2.67A2.68,2.68,0,0,0,173.78,310.11Zm23.55,0a2.67,2.67,0,1,0,2.67,2.67A2.67,2.67,0,0,0,197.33,310.11ZM164.67,293.7q-1.78,1.41-3.44,2.8a2.88,2.88,0,0,0,.78.11,2.67,2.67,0,0,0,2.67-2.66A2,2,0,0,0,164.67,293.7Zm20.88-2.42a2.67,2.67,0,1,0,2.67,2.67A2.66,2.66,0,0,0,185.55,291.28Zm23.55,0a2.67,2.67,0,1,0,2.67,2.67A2.67,2.67,0,0,0,209.1,291.28ZM173.78,348a2.67,2.67,0,1,0,2.67,2.67A2.67,2.67,0,0,0,173.78,348ZM162,329.17a2.67,2.67,0,1,0,2.67,2.67A2.67,2.67,0,0,0,162,329.17Zm23.54,0a2.67,2.67,0,1,0,2.67,2.67A2.67,2.67,0,0,0,185.55,329.17Z" style="fill:#fff"></path><path d="M172.69,359.11c8.71-16.2,20.34-31.9,22.17-34.78.08-.14.29,0,.2.15-1.95,2.73-13.28,22.12-22.15,34.8C172.81,359.42,172.6,359.27,172.69,359.11Z" style="fill:#263238"></path><path d="M211.47,301.53c1.6-2,3.12-4,4.76-6s3.37-4,5.08-5.9q5.19-5.92,10.57-11.66c.05-.06.15,0,.1.09-1.85,2.32-3.72,4.61-5.6,6.9l0,0c1.2-1,2.47-1.91,3.75-2.8.06,0,.12.05.07.1-1.12,1.09-2.27,2.16-3.47,3.16L225,286.86c-.17.14-.35.26-.53.39-.76.91-1.51,1.83-2.29,2.73-1.68,2-3.36,4-5.08,5.89s-3.64,3.87-5.44,5.82C211.56,301.79,211.38,301.64,211.47,301.53Z" style="fill:#263238"></path><path d="M213.55,387.72c4.59-4-2.7-7.09-2.7-7.09s11.58,2,14.73-3.91c3-5.7-5.91-9.18-6.55-9.44.62.1,11.3,1.65,13.86-4.6,2.65-6.51-6.92-8.47-7.54-8.59.61-.09,8.64-1.38,9.5-6.58,1.48-8.93-21.81-7.21-27.44-11.91,0,0,.92-11.66,1.05-12,0,0-2,4.75-5.94,6.37-4.84,2-9.26,3.35-11,6a6.62,6.62,0,0,0,.17,7.91s-6.43,0-8.59,4.87c-1.11,2.5,1.9,6.5,1.9,6.5s-5.14.22-6.8,4.66c-1.33,3.55,1.9,7,1.9,7s-4.84,2.5-5,6.57C174.66,381.67,203.72,396.18,213.55,387.72Z" style="fill:#ad6359"></path><path d="M180.52,367.53a.09.09,0,0,0-.11.13c8.39,7.11,19.79,12.34,30.82,13.18.36,0,.56-.55.17-.66C200.2,377.15,190.5,373.56,180.52,367.53Z" style="fill:#263238"></path><path d="M184.82,355.22c-.11-.06-.22.12-.11.2,8.68,7.28,21.68,12.82,34.5,12.29.44,0,.82-.48.31-.5C211,366.92,193.78,360.7,184.82,355.22Z" style="fill:#263238"></path><path d="M226.23,353.74c-12.31,0-23.4-3.88-34.21-9.54-.15-.07-.24.13-.13.23,4.53,4.21,11.8,7.1,17.64,8.86a32.49,32.49,0,0,0,16.71.88C226.46,354.12,226.5,353.74,226.23,353.74Z" style="fill:#263238"></path><path d="M179.76,366.91c-2.06-2-3.61-4.74-2.72-7.71a5.85,5.85,0,0,1,2.5-3.24c1.47-.94,3.65-.92,4.69-1-1.87-2.44-2.83-5.79-1.13-8.58a5.73,5.73,0,0,1,3.45-2.4,18.52,18.52,0,0,1,5-.38,6.76,6.76,0,0,1-2.13-5.7,7.33,7.33,0,0,1,3.9-5.43c2.35-1.4,5.06-1.93,7.64-2.75a17.36,17.36,0,0,0,3.87-1.57,12,12,0,0,0,3.52-4.27,5.82,5.82,0,0,1-.43,1.08,31.27,31.27,0,0,1-1.75,2.61,12.8,12.8,0,0,1-2.5,2.08c-2.23,1.41-4.82,2-7.21,3.06a10.5,10.5,0,0,0-5.18,4.36,6.27,6.27,0,0,0,.56,6.58c.08.08,0,.25-.15.25a18.4,18.4,0,0,0-4.36,1,6.26,6.26,0,0,0-2.87,2.29,8.07,8.07,0,0,0,.55,8,13.68,13.68,0,0,0-4.5,1.74,5.81,5.81,0,0,0-1.9,2.69,6.93,6.93,0,0,0,1.56,7.12.13.13,0,0,1,0,.1h0a.06.06,0,0,1,0,.06.1.1,0,0,1,0,.09h0s-1.54.87-1.62.88-.05-.05,0-.09A12.76,12.76,0,0,1,179.76,366.91Z" style="fill:#263238"></path></g><g id="freepik--Table--inject-47"><polygon points="26.92 460.31 82.37 460.06 137.81 459.98 248.7 459.81 359.58 459.97 415.03 460.06 470.47 460.31 415.03 460.55 359.58 460.64 248.7 460.81 137.81 460.64 82.37 460.55 26.92 460.31" style="fill:#263238"></polygon></g></svg>