<svg width="27" height="27" viewBox="0 0 27 27" fill="none" xmlns="http://www.w3.org/2000/svg">
<g filter="url(#filter0_d_31_2040)">
<rect x="3" y="1" width="20" height="20" rx="10" fill="white"/>
<path fill-rule="evenodd" clip-rule="evenodd" d="M14.9883 6.34863C16.5591 6.34863 17.6149 7.44894 17.6149 9.08619V12.8693C17.6149 14.5065 16.5591 15.6068 14.9883 15.6068H10.9741C9.40549 15.6068 8.35205 14.5065 8.35205 12.8693V9.08619C8.35205 7.44894 9.40549 6.34863 10.9741 6.34863H14.9883ZM14.9883 7.04474H10.9741C9.80413 7.04474 9.04816 7.84619 9.04816 9.08619V12.8693C9.04816 14.1098 9.80413 14.9107 10.9741 14.9107H14.9883C16.161 14.9107 16.9188 14.1098 16.9188 12.8693V9.08619C16.9188 7.84619 16.161 7.04474 14.9883 7.04474ZM15.2848 11.0355C15.2877 11.0379 15.2906 11.0402 15.2967 11.0459L15.3056 11.0544C15.3075 11.0562 15.3095 11.0581 15.3116 11.0603L15.3375 11.086C15.4212 11.1698 15.6526 11.4061 16.342 12.114C16.4761 12.2513 16.4738 12.4718 16.3359 12.6059C16.1986 12.7409 15.9777 12.7368 15.8435 12.5994C15.8435 12.5994 14.8927 11.6234 14.8249 11.5575C14.753 11.4986 14.6374 11.4643 14.5237 11.4754C14.4082 11.487 14.3042 11.5422 14.2304 11.6318C13.1519 12.94 13.1389 12.9525 13.1213 12.9697C12.7231 13.3605 12.0804 13.354 11.6892 12.9549C11.6892 12.9549 11.2576 12.5168 11.2502 12.508C11.143 12.4087 10.9518 12.4152 10.8371 12.5363L10.1271 13.2848C10.0584 13.3572 9.96655 13.3934 9.87467 13.3934C9.78835 13.3934 9.7025 13.3619 9.63521 13.2978C9.49552 13.166 9.48995 12.9451 9.62221 12.8064L10.3313 12.0578C10.7067 11.6592 11.3402 11.6397 11.7407 12.0156L12.1853 12.4667C12.3092 12.592 12.5106 12.5943 12.635 12.4718C12.6818 12.4165 13.6926 11.1891 13.6926 11.1891C13.8847 10.9561 14.1557 10.8123 14.4569 10.7826C14.7585 10.7561 15.0514 10.8438 15.2848 11.0355ZM11.3955 8.49677C12.0369 8.49723 12.558 9.01885 12.558 9.6588C12.558 10.2997 12.0364 10.8213 11.3955 10.8213C10.7546 10.8213 10.2335 10.2997 10.2335 9.6588C10.2335 9.01792 10.7546 8.49677 11.3955 8.49677ZM11.3951 9.19288C11.1384 9.19288 10.9296 9.40171 10.9296 9.6588C10.9296 9.9159 11.1384 10.1252 11.3955 10.1252C11.6526 10.1252 11.8619 9.9159 11.8619 9.6588C11.8619 9.40217 11.6526 9.19334 11.3951 9.19288Z" fill="#75818F"/>
</g>
<defs>
<filter id="filter0_d_31_2040" x="0.692308" y="0.230769" width="26.1538" height="26.1538" filterUnits="userSpaceOnUse" color-interpolation-filters="sRGB">
<feFlood flood-opacity="0" result="BackgroundImageFix"/>
<feColorMatrix in="SourceAlpha" type="matrix" values="0 0 0 0 0 0 0 0 0 0 0 0 0 0 0 0 0 0 127 0" result="hardAlpha"/>
<feOffset dx="0.769231" dy="2.30769"/>
<feGaussianBlur stdDeviation="1.53846"/>
<feComposite in2="hardAlpha" operator="out"/>
<feColorMatrix type="matrix" values="0 0 0 0 0 0 0 0 0 0 0 0 0 0 0 0 0 0 0.08 0"/>
<feBlend mode="normal" in2="BackgroundImageFix" result="effect1_dropShadow_31_2040"/>
<feBlend mode="normal" in="SourceGraphic" in2="effect1_dropShadow_31_2040" result="shape"/>
</filter>
</defs>
</svg>
